<svg width="97" height="99" viewBox="0 0 97 99" fill="none" xmlns="http://www.w3.org/2000/svg">
<path d="M39.8886 87.8104C39.7093 87.8145 39.5327 87.7662 39.3803 87.6714L23.5789 77.8021C23.47 77.7378 23.375 77.6523 23.2996 77.5506C23.2242 77.449 23.1698 77.3332 23.1396 77.2102C23.1095 77.0871 23.1042 76.9592 23.1241 76.8341C23.144 76.709 23.1887 76.5891 23.2554 76.4815L58.7625 19.4662C58.9027 19.2557 59.1174 19.1066 59.3632 19.0492C59.4876 19.0157 59.6177 19.0087 59.745 19.0287C59.8723 19.0486 59.9941 19.0951 60.1024 19.165L75.9039 29.0344C76.1152 29.1722 76.2647 29.3872 76.3208 29.6336C76.3768 29.8801 76.335 30.1388 76.2042 30.3549L40.8126 87.3703C40.746 87.4771 40.6584 87.5691 40.5551 87.6408C40.4519 87.7125 40.3351 87.7624 40.212 87.7873L39.8886 87.8104ZM25.4039 76.69L39.5651 85.5169L73.9403 30.1464L59.779 21.3659L25.4039 76.69Z" fill="white" stroke="white"/>
<path d="M76.6505 31.3016C76.269 31.3015 75.8958 31.1892 75.5764 30.9786L57.6594 19.7183C57.4312 19.5789 57.2329 19.395 57.0758 19.1774C56.9187 18.9598 56.806 18.7128 56.7443 18.4509C56.6827 18.1889 56.6732 17.9172 56.7165 17.6515C56.7599 17.3858 56.8551 17.1314 56.9967 16.9032L63.6698 6.05833C63.9629 5.60037 64.4226 5.27714 64.9496 5.15844C65.2081 5.08938 65.4782 5.07628 65.7421 5.12003C66.006 5.16377 66.2577 5.26336 66.4808 5.41226L84.3978 16.6725C84.8552 16.9585 85.1833 17.4141 85.3119 17.9416C85.4148 18.4782 85.3257 19.0342 85.0606 19.5107L78.3645 30.2402C78.0812 30.702 77.63 31.0333 77.1076 31.1631L76.6505 31.3016ZM65.4524 7.02745H65.3153L58.6421 17.8724C58.6196 17.8977 58.6072 17.9306 58.6072 17.9646C58.6072 17.9987 58.6196 18.0316 58.6421 18.057L76.5591 29.3172C76.5842 29.3399 76.6168 29.3525 76.6505 29.3525C76.6842 29.3525 76.7168 29.3399 76.7419 29.3172L83.4151 18.4954C83.4338 18.4683 83.4438 18.4361 83.4438 18.4031C83.4438 18.3701 83.4338 18.3379 83.4151 18.3108L65.4524 7.02745Z" fill="white" stroke="white"/>
<path d="M71.6725 28.0263C71.4468 28.0217 71.2262 27.9584 71.0322 27.8424L63.0049 22.8097C62.7834 22.6589 62.6124 22.4443 62.5145 22.1942C62.4165 21.944 62.3961 21.6699 62.456 21.4079C62.5153 21.0154 62.6555 20.6397 62.8677 20.3048L69.5456 9.5269C70.186 8.49278 71.1237 8.10211 71.8326 8.56172L79.8599 13.5715C80.0791 13.7244 80.2482 13.9392 80.3459 14.1888C80.4436 14.4383 80.4655 14.7113 80.4088 14.9733C80.3495 15.3658 80.2093 15.7415 79.9971 16.0764L73.3191 26.8543C73.1137 27.1966 72.8414 27.4936 72.5187 27.7275C72.268 27.9007 71.976 28.0039 71.6725 28.0263V28.0263ZM64.4228 21.4309L71.6497 26.027L78.3276 15.2491L71.1008 10.653L64.4228 21.4309Z" fill="white" stroke="white"/>
<path d="M83.4065 18.1981C83.2219 18.1985 83.0405 18.1498 82.8816 18.0573L66.1803 7.79833C66.0679 7.73318 65.9698 7.64654 65.8919 7.54353C65.814 7.44053 65.7578 7.32323 65.7267 7.19854C65.6956 7.07385 65.6901 6.94427 65.7107 6.81748C65.7312 6.69068 65.7773 6.56923 65.8463 6.46023C66.5635 5.20081 67.5327 4.09749 68.6954 3.21695C69.8581 2.33641 71.1901 1.69691 72.611 1.33709C74.0319 0.977272 75.5123 0.904603 76.9625 1.12346C78.4128 1.34231 79.8029 1.84815 81.0489 2.61043C82.2949 3.3727 83.3709 4.37559 84.212 5.55851C85.0531 6.74142 85.6417 8.0798 85.9423 9.49281C86.2429 10.9058 86.2493 12.3641 85.9611 13.7797C85.6729 15.1952 85.0961 16.5385 84.2654 17.7286C84.1771 17.8744 84.0511 17.9947 83.9002 18.0771C83.7494 18.1596 83.579 18.2013 83.4065 18.1981V18.1981ZM68.089 6.69497L83.0248 15.8505C83.969 13.917 84.1527 11.708 83.5403 9.64914C82.928 7.59029 81.563 5.82722 79.7084 4.69955C77.8609 3.56902 75.6549 3.14756 73.5117 3.51563C71.3685 3.88369 69.4381 5.01548 68.089 6.69497V6.69497Z" fill="white" stroke="white"/>
<path d="M22.4406 97.6379C22.2626 97.6383 22.0878 97.589 21.9347 97.4952C21.7881 97.3995 21.6685 97.2656 21.5878 97.1069C21.5071 96.9483 21.4681 96.7705 21.4747 96.5914L22.6706 76.469C22.6866 76.2993 22.7434 76.1364 22.8358 75.9952C22.9282 75.8539 23.0532 75.7388 23.1996 75.6603C23.3421 75.5723 23.505 75.5259 23.671 75.5259C23.837 75.5259 24 75.5723 24.1425 75.6603L39.8731 85.7691C40.0104 85.8671 40.1222 85.9988 40.1985 86.1523C40.2747 86.3059 40.313 86.4765 40.31 86.6491C40.3092 86.8199 40.2639 86.9874 40.1789 87.1339C40.094 87.2804 39.9724 87.4005 39.8271 87.4816L22.9236 97.4477C22.7823 97.5553 22.6153 97.6211 22.4406 97.6379V97.6379ZM24.4875 78.2529L23.4985 94.9026L37.4813 86.6491L24.4875 78.2529Z" fill="white" stroke="white"/>
<path d="M31.4668 82.8961C31.2819 82.9031 31.1004 82.8458 30.9537 82.7339C30.8437 82.6695 30.7479 82.584 30.6717 82.4823C30.5956 82.3806 30.5407 82.2648 30.5102 82.1417C30.4798 82.0186 30.4745 81.8907 30.4946 81.7655C30.5147 81.6403 30.5597 81.5204 30.6272 81.4128L66.357 24.3756C66.5 24.162 66.7205 24.0114 66.9725 23.9553C67.2245 23.8992 67.4885 23.9418 67.7097 24.0743C67.923 24.2122 68.074 24.4272 68.1306 24.6738C68.1871 24.9204 68.1449 25.1792 68.0129 25.3954L32.283 82.4326C32.197 82.5717 32.0772 82.687 31.9345 82.768C31.7919 82.849 31.631 82.893 31.4668 82.8961V82.8961Z" fill="white" stroke="white"/>
<path d="M51.2476 33.7584C51.1201 33.7586 50.9941 33.7291 50.8786 33.6718C50.763 33.6145 50.6608 33.531 50.5791 33.427L48.752 31.3204C48.6287 31.1801 48.5462 31.0049 48.5146 30.8159C48.4829 30.6269 48.5035 30.4322 48.5738 30.2553C48.6487 30.0825 48.7678 29.9354 48.9174 29.8308C49.0671 29.7262 49.2414 29.6683 49.4205 29.6636H52.4953C52.6603 29.6668 52.8215 29.7163 52.9627 29.8071C53.1039 29.8979 53.22 30.0267 53.2991 30.1805C53.3783 30.3343 53.4178 30.5077 53.4136 30.6829C53.4094 30.8582 53.3616 31.0291 53.2751 31.1784L52.0497 33.285C51.9691 33.413 51.8639 33.5214 51.741 33.603C51.6181 33.6846 51.4803 33.7375 51.3367 33.7584H51.2476Z" fill="white" stroke="white"/>
<path d="M84.2965 70.5554C84.1635 70.5574 84.0317 70.5313 83.9091 70.4786C83.7865 70.426 83.6758 70.3479 83.584 70.2494L63.4287 47.8142C63.307 47.6389 63.2416 47.429 63.2416 47.2139C63.2416 46.9987 63.307 46.7889 63.4287 46.6136L73.4949 30.1344C73.5833 29.9913 73.7054 29.8732 73.8499 29.791C73.9945 29.7087 74.1569 29.6649 74.3222 29.6636H84.3884C84.6444 29.6636 84.8899 29.7677 85.0709 29.9532C85.2519 30.1386 85.3536 30.3901 85.3536 30.6523V69.6844C85.3495 69.8829 85.2885 70.0758 85.1781 70.239C85.0678 70.4023 84.9131 70.5287 84.7331 70.6025C84.586 70.6242 84.4359 70.608 84.2965 70.5554V70.5554ZM65.3362 47.0138L83.3312 67.0478V31.5469H74.7589L65.3362 47.0138Z" fill="white" stroke="white"/>
<path d="M45.2291 43.5864C45.0941 43.5885 44.9601 43.562 44.8356 43.5086C44.711 43.4553 44.5986 43.3762 44.5054 43.2764L24.1948 20.6873C24.0656 20.5459 23.9792 20.3693 23.946 20.1788C23.9129 19.9884 23.9344 19.7922 24.0081 19.6139C24.0866 19.4397 24.2114 19.2915 24.3682 19.1861C24.525 19.0807 24.7076 19.0223 24.8952 19.0176H59.0029C59.1758 19.0208 59.3448 19.0707 59.4927 19.1622C59.6406 19.2537 59.7622 19.3835 59.8451 19.5385C59.9281 19.6935 59.9695 19.8682 59.9651 20.0448C59.9607 20.2214 59.9106 20.3937 59.82 20.5442L46.0462 43.1333C45.9722 43.2646 45.8672 43.3749 45.7408 43.454C45.6144 43.5332 45.4706 43.5787 45.3225 43.5864H45.2291ZM27.113 21.0212L45.089 40.9626L57.252 21.0212H27.113Z" fill="white" stroke="white"/>
<path d="M94.916 97.6187C94.7812 97.6163 94.6482 97.5864 94.5253 97.5307C94.4024 97.4751 94.2921 97.3949 94.2012 97.2951L57.6987 57.5138C57.5751 57.3465 57.5084 57.144 57.5084 56.9359C57.5084 56.7278 57.5751 56.5252 57.6987 56.358L73.84 30.3765L70.8193 28.5041C70.6067 28.3623 70.457 28.1438 70.4011 27.8941C70.3453 27.6444 70.3877 27.3826 70.5195 27.1635C70.6567 26.952 70.8707 26.8024 71.116 26.7463C71.3613 26.6903 71.6188 26.7321 71.8339 26.863L76.8377 29.9835C76.8658 29.9997 76.8976 30.0083 76.93 30.0083C76.9624 30.0083 76.9941 29.9997 77.0222 29.9835L83.0406 20.2982C83.1257 20.1595 83.2441 20.0445 83.3852 19.9637C83.5262 19.8829 83.6853 19.839 83.8477 19.8359H95.0313C95.2882 19.8359 95.5345 19.9382 95.7161 20.1203C95.8978 20.3024 95.9998 20.5493 95.9998 20.8068V96.694C95.9987 96.8897 95.9387 97.0805 95.8276 97.2413C95.7165 97.4022 95.5595 97.5257 95.3772 97.5955C95.2279 97.6423 95.0692 97.6503 94.916 97.6187V97.6187ZM59.6126 56.7509L93.9475 94.1745V21.7314H84.2627L78.521 30.9775C78.2352 31.4401 77.7799 31.772 77.2528 31.9021C76.9898 31.961 76.7177 31.9668 76.4525 31.9192C76.1872 31.8716 75.9341 31.7715 75.7078 31.6247L75.3619 31.4167L59.6126 56.7509Z" fill="white" stroke="white"/>
<path d="M95.0256 80.4394H88.7618C88.5095 80.4394 88.2676 80.3542 88.0892 80.2025C87.9108 80.0508 87.8106 79.845 87.8106 79.6305C87.8075 79.5226 87.8298 79.4153 87.8763 79.3148C87.9227 79.2144 87.9922 79.1229 88.0809 79.0456C88.1695 78.9684 88.2754 78.907 88.3923 78.8652C88.5093 78.8233 88.6349 78.8017 88.7618 78.8018H95.0256C95.284 78.8018 95.5319 78.8891 95.7146 79.0445C95.8973 79.1999 96 79.4107 96 79.6305C96 79.7384 95.9747 79.8452 95.9254 79.9447C95.8762 80.0441 95.804 80.1342 95.7132 80.2096C95.6224 80.285 95.5148 80.3442 95.3967 80.3836C95.2786 80.4231 95.1524 80.4421 95.0256 80.4394Z" fill="white" stroke="white"/>
<path d="M95.0011 72.25H91.2428C90.9842 72.25 90.7362 72.1222 90.5533 71.8946C90.3704 71.667 90.2676 71.3584 90.2676 71.0365C90.2645 70.8747 90.2873 70.7137 90.3349 70.5631C90.3825 70.4124 90.4538 70.2751 90.5447 70.1593C90.6356 70.0434 90.7442 69.9514 90.8641 69.8886C90.984 69.8257 91.1127 69.7934 91.2428 69.7935H95.0011C95.266 69.7935 95.5202 69.9244 95.7075 70.1576C95.8949 70.3907 96.0001 70.7069 96.0001 71.0365C96.0001 71.1984 95.9741 71.3587 95.9237 71.5078C95.8732 71.657 95.7992 71.7921 95.7061 71.9052C95.613 72.0183 95.5027 72.107 95.3816 72.1663C95.2605 72.2255 95.1311 72.2539 95.0011 72.25V72.25Z" fill="white" stroke="white"/>
<path d="M95.0283 63.241H88.782C88.5243 63.241 88.2771 63.1547 88.0949 63.0011C87.9127 62.8475 87.8103 62.6392 87.8103 62.422C87.8103 62.2048 87.9127 61.9965 88.0949 61.8429C88.2771 61.6893 88.5243 61.603 88.782 61.603H95.0283C95.286 61.603 95.5332 61.6893 95.7154 61.8429C95.8976 61.9965 96 62.2048 96 62.422C96 62.6392 95.8976 62.8475 95.7154 63.0011C95.5332 63.1547 95.286 63.241 95.0283 63.241V63.241Z" fill="white" stroke="white"/>
<path d="M95.0011 55.0515H91.2428C91.1127 55.0515 90.984 55.03 90.8641 54.9881C90.7442 54.9462 90.6356 54.8849 90.5447 54.8076C90.4538 54.7304 90.3825 54.6389 90.3349 54.5384C90.2873 54.438 90.2645 54.3307 90.2676 54.2228C90.2676 54.0082 90.3704 53.8025 90.5533 53.6508C90.7362 53.499 90.9842 53.4138 91.2428 53.4138H95.0011C95.1311 53.4112 95.2605 53.4302 95.3816 53.4696C95.5027 53.5091 95.613 53.5683 95.7061 53.6437C95.7992 53.7191 95.8732 53.8091 95.9237 53.9086C95.9741 54.0081 96.0001 54.1149 96.0001 54.2228C96.0001 54.4426 95.8949 54.6534 95.7075 54.8088C95.5202 54.9642 95.266 55.0515 95.0011 55.0515V55.0515Z" fill="white" stroke="white"/>
<path d="M95.0256 46.8622H88.7618C88.6349 46.8622 88.5093 46.8299 88.3923 46.7671C88.2754 46.7042 88.1695 46.6122 88.0809 46.4964C87.9922 46.3805 87.9227 46.2432 87.8763 46.0926C87.8298 45.9419 87.8075 45.7809 87.8106 45.6191C87.8106 45.2973 87.9108 44.9886 88.0892 44.7611C88.2676 44.5335 88.5095 44.4056 88.7618 44.4056H95.0256C95.1524 44.4017 95.2786 44.4302 95.3967 44.4894C95.5148 44.5486 95.6224 44.6374 95.7132 44.7504C95.804 44.8635 95.8762 44.9986 95.9254 45.1478C95.9747 45.297 96 45.4572 96 45.6191C96 45.9488 95.8973 46.265 95.7146 46.4981C95.5319 46.7312 95.284 46.8622 95.0256 46.8622V46.8622Z" fill="white" stroke="white"/>
<path d="M95.0011 37.853H91.2428C90.9842 37.853 90.7362 37.7678 90.5533 37.6161C90.3704 37.4644 90.2676 37.2586 90.2676 37.044C90.2645 36.9362 90.2873 36.8288 90.3349 36.7284C90.3825 36.628 90.4538 36.5365 90.5447 36.4592C90.6356 36.382 90.7442 36.3207 90.8641 36.2788C90.984 36.2369 91.1127 36.2153 91.2428 36.2153H95.0011C95.266 36.2153 95.5202 36.3026 95.7075 36.4581C95.8949 36.6135 96.0001 36.8243 96.0001 37.044C96.0001 37.152 95.9741 37.2588 95.9237 37.3583C95.8732 37.4577 95.7992 37.5478 95.7061 37.6232C95.613 37.6986 95.5027 37.7577 95.3816 37.7972C95.2605 37.8367 95.1311 37.8557 95.0011 37.853Z" fill="white" stroke="white"/>
<path d="M95.0256 29.6631H88.7618C88.5095 29.6631 88.2676 29.5778 88.0892 29.4261C87.9108 29.2744 87.8106 29.0687 87.8106 28.8541C87.8075 28.7462 87.8298 28.6389 87.8763 28.5385C87.9227 28.438 87.9922 28.3465 88.0809 28.2693C88.1695 28.192 88.2754 28.1307 88.3923 28.0888C88.5093 28.0469 88.6349 28.0254 88.7618 28.0254H95.0256C95.284 28.0254 95.5319 28.1127 95.7146 28.2681C95.8973 28.4235 96 28.6343 96 28.8541C96 28.962 95.9747 29.0688 95.9254 29.1683C95.8762 29.2678 95.804 29.3578 95.7132 29.4332C95.6224 29.5086 95.5148 29.5678 95.3967 29.6073C95.2786 29.6467 95.1524 29.6657 95.0256 29.6631V29.6631Z" fill="white" stroke="white"/>
<path d="M44.2527 97.638H1.94861C1.8221 97.6381 1.69684 97.6058 1.58025 97.5429C1.46366 97.4801 1.35808 97.388 1.26971 97.2722C1.18134 97.1564 1.11199 97.0191 1.06572 96.8685C1.01944 96.7178 0.997197 96.5568 1.00028 96.395C1.00028 96.0732 1.10019 95.7645 1.27804 95.5369C1.45588 95.3094 1.6971 95.1815 1.94861 95.1815H44.2527C44.3792 95.1776 44.505 95.206 44.6227 95.2652C44.7404 95.3245 44.8477 95.4132 44.9383 95.5263C45.0288 95.6393 45.1007 95.7745 45.1498 95.9236C45.1989 96.0728 45.2242 96.2331 45.2241 96.395C45.2241 96.7247 45.1218 97.0408 44.9396 97.274C44.7574 97.5071 44.5103 97.638 44.2527 97.638V97.638Z" fill="white" stroke="white"/>
<path d="M84.4714 97.638H82.1405C81.9066 97.638 81.6823 97.5071 81.5169 97.274C81.3515 97.0408 81.2585 96.7247 81.2585 96.395C81.2585 96.2331 81.2815 96.0728 81.326 95.9236C81.3706 95.7745 81.4359 95.6393 81.5181 95.5263C81.6003 95.4132 81.6977 95.3245 81.8046 95.2652C81.9115 95.206 82.0257 95.1776 82.1405 95.1815H84.4714C84.5862 95.1776 84.7004 95.206 84.8073 95.2652C84.9142 95.3245 85.0116 95.4132 85.0938 95.5263C85.176 95.6393 85.2413 95.7745 85.2859 95.9236C85.3305 96.0728 85.3534 96.2331 85.3534 96.395C85.3534 96.7247 85.2604 97.0408 85.095 97.274C84.9296 97.5071 84.7053 97.638 84.4714 97.638Z" fill="white" stroke="white"/>
<path d="M73.7678 97.638H68.4547C68.1996 97.638 67.9549 97.5071 67.7746 97.274C67.5942 97.0408 67.4928 96.7247 67.4928 96.395C67.4928 96.2331 67.5178 96.0728 67.5664 95.9236C67.615 95.7745 67.6863 95.6393 67.7759 95.5263C67.8655 95.4132 67.9718 95.3245 68.0883 95.2652C68.2049 95.206 68.3295 95.1776 68.4547 95.1815H73.7678C74.0168 95.1815 74.2557 95.3094 74.4318 95.5369C74.6078 95.7645 74.7068 96.0732 74.7068 96.395C74.7098 96.5568 74.6878 96.7178 74.642 96.8685C74.5962 97.0191 74.5275 97.1564 74.44 97.2722C74.3525 97.388 74.248 97.4801 74.1325 97.5429C74.0171 97.6058 73.8931 97.6381 73.7678 97.638V97.638ZM60.485 97.638H55.1948C54.9397 97.638 54.695 97.5071 54.5146 97.274C54.3343 97.0408 54.2329 96.7247 54.2329 96.395C54.2329 96.2331 54.2579 96.0728 54.3065 95.9236C54.3551 95.7745 54.4263 95.6393 54.516 95.5263C54.6056 95.4132 54.7118 95.3245 54.8284 95.2652C54.945 95.206 55.0695 95.1776 55.1948 95.1815H60.485C60.6102 95.1776 60.7348 95.206 60.8514 95.2652C60.968 95.3245 61.0742 95.4132 61.1638 95.5263C61.2534 95.6393 61.3246 95.7745 61.3732 95.9236C61.4219 96.0728 61.4469 96.2331 61.4469 96.395C61.4469 96.7247 61.3455 97.0408 61.1651 97.274C60.9848 97.5071 60.7401 97.638 60.485 97.638V97.638Z" fill="white" stroke="white"/>
<path d="M46.7946 97.638H44.4518C44.3364 97.6381 44.2221 97.6058 44.1157 97.5429C44.0093 97.4801 43.913 97.388 43.8323 97.2722C43.7517 97.1564 43.6884 97.0191 43.6461 96.8685C43.6039 96.7178 43.5836 96.5568 43.5864 96.395C43.5864 96.0732 43.6776 95.7645 43.8399 95.5369C44.0022 95.3094 44.2223 95.1815 44.4518 95.1815H46.7946C46.91 95.1776 47.0248 95.206 47.1322 95.2652C47.2396 95.3245 47.3375 95.4132 47.4201 95.5263C47.5028 95.6393 47.5684 95.7745 47.6132 95.9236C47.658 96.0728 47.681 96.2331 47.681 96.395C47.681 96.7247 47.5876 97.0408 47.4214 97.274C47.2551 97.5071 47.0297 97.638 46.7946 97.638Z" fill="white" stroke="white"/>
<path d="M95.0445 97.638H84.6709C84.4175 97.638 84.1745 97.5071 83.9953 97.274C83.8161 97.0408 83.7155 96.7247 83.7155 96.395C83.7154 96.2331 83.7403 96.0728 83.7886 95.9236C83.8368 95.7745 83.9076 95.6393 83.9966 95.5263C84.0857 95.4132 84.1912 95.3245 84.307 95.2652C84.4228 95.206 84.5465 95.1776 84.6709 95.1815H95.0445C95.1689 95.1776 95.2926 95.206 95.4084 95.2652C95.5242 95.3245 95.6297 95.4132 95.7188 95.5263C95.8078 95.6393 95.8785 95.7745 95.9268 95.9236C95.9751 96.0728 96 96.2331 95.9999 96.395C95.9999 96.7247 95.8993 97.0408 95.7201 97.274C95.5409 97.5071 95.2979 97.638 95.0445 97.638V97.638Z" fill="white" stroke="white"/>
</svg>
