<svg width="100" height="96" viewBox="0 0 100 96" fill="none" xmlns="http://www.w3.org/2000/svg">
<path d="M42.8579 87.8006H28.659C28.5348 87.8007 28.4118 87.7758 28.2973 87.7276C28.1827 87.6793 28.079 87.6086 27.9922 87.5197C27.9054 87.4307 27.8373 87.3253 27.7918 87.2096C27.7464 87.0939 27.7245 86.9702 27.7276 86.8459V65.252C27.7276 65.1296 27.7517 65.0085 27.7985 64.8954C27.8453 64.7823 27.9139 64.6796 28.0004 64.5931C28.0869 64.5065 28.1896 64.4379 28.3026 64.391C28.4156 64.3442 28.5367 64.3201 28.659 64.3201H42.9714C43.0956 64.3171 43.2192 64.3389 43.3349 64.3844C43.4505 64.4299 43.5559 64.498 43.6448 64.5849C43.7337 64.6717 43.8044 64.7755 43.8526 64.8901C43.9008 65.0046 43.9257 65.1277 43.9256 65.252V86.8459C43.9266 86.9815 43.8987 87.1157 43.8438 87.2396C43.7889 87.3635 43.7083 87.4743 43.6073 87.5646C43.5062 87.6549 43.3872 87.7227 43.258 87.7634C43.1288 87.8041 42.9924 87.8168 42.8579 87.8006ZM29.4996 85.8913H41.9264V66.2067H29.4996V85.8913Z" fill="white" stroke="white"/>
<path d="M38.8901 65.9391H32.7396C32.6112 65.9391 32.4841 65.9142 32.3658 65.8659C32.2475 65.8176 32.1403 65.7468 32.0506 65.6577C31.9609 65.5686 31.8905 65.4631 31.8436 65.3472C31.7966 65.2313 31.774 65.1075 31.7771 64.9831V14.2279C31.7771 13.9804 31.8785 13.743 32.059 13.568C32.2395 13.393 32.4844 13.2947 32.7396 13.2947H38.8901C39.0185 13.2917 39.1462 13.3136 39.2657 13.3591C39.3851 13.4046 39.494 13.4729 39.5859 13.5598C39.6778 13.6468 39.7508 13.7507 39.8006 13.8654C39.8504 13.9801 39.8761 14.1034 39.876 14.2279V64.9831C39.876 65.2366 39.7721 65.4798 39.5872 65.6591C39.4023 65.8383 39.1516 65.9391 38.8901 65.9391ZM33.7255 64.05H37.9276V15.1838H33.7255V64.05Z" fill="white" stroke="white"/>
<path d="M64.8299 14.9149H6.01305C5.88653 14.9149 5.76122 14.8903 5.64433 14.8424C5.52744 14.7946 5.42122 14.7245 5.33175 14.6361C5.24229 14.5477 5.17134 14.4427 5.12293 14.3272C5.07451 14.2117 5.04956 14.0879 5.04956 13.9629V6.93556C5.04952 6.81158 5.07465 6.68885 5.12335 6.57458C5.17204 6.46032 5.24337 6.35684 5.33315 6.27023C5.42293 6.18362 5.52931 6.11562 5.64608 6.07027C5.76285 6.02491 5.88762 6.00311 6.01305 6.00614H64.8299C64.9554 6.00311 65.0801 6.02491 65.1969 6.07027C65.3137 6.11562 65.4201 6.18362 65.5098 6.27023C65.5996 6.35684 65.6709 6.46032 65.7196 6.57458C65.7683 6.68885 65.7934 6.81158 65.7934 6.93556V13.9629C65.7934 14.2154 65.6918 14.4575 65.5112 14.6361C65.3305 14.8146 65.0855 14.9149 64.8299 14.9149ZM6.97654 13.0334H63.8894V7.88764H6.97654V13.0334Z" fill="white" stroke="white"/>
<path d="M58.3765 8.43525H12.4894C12.2347 8.43525 11.9904 8.32665 11.8103 8.13335C11.6302 7.94004 11.5291 7.67787 11.5291 7.4045V2.15252C11.529 2.01829 11.554 1.88542 11.6025 1.76172C11.6511 1.63801 11.7222 1.52598 11.8116 1.43221C11.9011 1.33845 12.0072 1.26482 12.1236 1.21572C12.24 1.16662 12.3643 1.14302 12.4894 1.1463H58.3765C58.6252 1.1463 58.8635 1.25231 59.0393 1.44101C59.2151 1.62971 59.3139 1.88566 59.3139 2.15252V7.4045C59.3169 7.53868 59.295 7.67217 59.2492 7.7971C59.2035 7.92203 59.1349 8.03587 59.0476 8.13192C58.9602 8.22797 58.8559 8.30429 58.7406 8.35639C58.6254 8.40848 58.5016 8.43529 58.3765 8.43525ZM13.4268 6.39827H57.4162V3.18328H13.4268V6.39827Z" fill="white" stroke="white"/>
<path d="M35.8169 87.8074C35.7102 87.8075 35.6045 87.7826 35.5062 87.7343C35.4078 87.6861 35.3187 87.6154 35.2441 87.5264C35.1696 87.4374 35.1111 87.3319 35.072 87.2162C35.033 87.1004 35.0142 86.9768 35.0168 86.8524V65.2523C35.0168 65.0051 35.1011 64.768 35.2512 64.5931C35.4012 64.4183 35.6047 64.3201 35.8169 64.3201C35.9236 64.3171 36.0297 64.3389 36.1291 64.3844C36.2284 64.4299 36.3189 64.4981 36.3953 64.585C36.4716 64.6718 36.5323 64.7756 36.5737 64.8902C36.6152 65.0048 36.6365 65.1279 36.6364 65.2523V86.8524C36.6364 87.1057 36.5501 87.3486 36.3964 87.5277C36.2427 87.7068 36.0343 87.8074 35.8169 87.8074Z" fill="white" stroke="white"/>
<path d="M97.2564 95.0964H1.93371C1.80919 95.0964 1.68593 95.0751 1.57117 95.0337C1.45641 94.9923 1.35252 94.9316 1.26554 94.8552C1.17856 94.7788 1.1103 94.6883 1.06475 94.5889C1.0192 94.4896 0.99724 94.3834 1.00028 94.2767C1.00028 94.0645 1.09862 93.861 1.27367 93.7109C1.44872 93.5609 1.68615 93.4766 1.93371 93.4766H97.2564C97.504 93.4766 97.7414 93.5609 97.9164 93.7109C98.0915 93.861 98.1898 94.0645 98.1898 94.2767C98.1928 94.3834 98.1709 94.4896 98.1254 94.5889C98.0798 94.6883 98.0116 94.7788 97.9246 94.8552C97.8376 94.9316 97.7337 94.9923 97.619 95.0337C97.5042 95.0751 97.381 95.0964 97.2564 95.0964Z" fill="white" stroke="white"/>
<path d="M71.4629 57.0302C69.2203 57.0302 67.0281 56.3652 65.1634 55.1193C63.2987 53.8733 61.8454 52.1025 60.9872 50.0306C60.129 47.9586 59.9044 45.6788 60.3419 43.4793C60.7794 41.2798 61.8594 39.2594 63.4451 37.6736C65.0309 36.0878 67.0513 35.0079 69.2508 34.5704C71.4503 34.1329 73.7302 34.3574 75.8021 35.2157C77.874 36.0739 79.6449 37.5272 80.8908 39.3919C82.1367 41.2565 82.8017 43.4488 82.8017 45.6914C82.8017 48.6986 81.6071 51.5827 79.4806 53.7091C77.3542 55.8356 74.4702 57.0302 71.4629 57.0302ZM71.4629 36.3043C69.6247 36.3043 67.8278 36.8494 66.2994 37.8706C64.7709 38.8919 63.5797 40.3434 62.8762 42.0417C62.1728 43.74 61.9887 45.6087 62.3473 47.4116C62.7059 49.2145 63.5912 50.8706 64.891 52.1704C66.1908 53.4702 67.8468 54.3554 69.6497 54.714C71.4526 55.0726 73.3213 54.8885 75.0196 54.1851C76.7179 53.4816 78.1694 52.2904 79.1907 50.762C80.2119 49.2336 80.7571 47.4367 80.7571 45.5984C80.7209 43.1469 79.7293 40.8062 77.9935 39.0747C76.2576 37.3432 73.9146 36.3575 71.4629 36.3275V36.3043Z" fill="white" stroke="white"/>
<path d="M92.079 63.5081C91.8591 63.5184 91.6407 63.4719 91.4511 63.3745C91.2614 63.2771 91.109 63.1332 91.0129 62.9606C90.9168 62.7881 90.8812 62.5947 90.9107 62.4046C90.9402 62.2146 91.0335 62.0363 91.1788 61.8923C91.7932 61.2384 92.3668 60.5562 92.8973 59.8487C93.0736 59.6493 93.33 59.5154 93.6149 59.4737C93.8998 59.4321 94.1923 59.4857 94.4338 59.624C94.6752 59.7622 94.8478 59.9747 94.9169 60.2191C94.9861 60.4635 94.9467 60.7216 94.8067 60.9418C94.2349 61.6996 93.6156 62.4294 92.9518 63.1279C92.8517 63.2474 92.7202 63.3442 92.5684 63.4104C92.4165 63.4765 92.2487 63.5101 92.079 63.5081Z" fill="white" stroke="white"/>
<path d="M96.9139 54.6004H96.6071C96.4841 54.5646 96.37 54.5051 96.2717 54.4255C96.1735 54.3459 96.0932 54.2479 96.0357 54.1374C95.9783 54.027 95.9449 53.9064 95.9376 53.7831C95.9303 53.6598 95.9493 53.5364 95.9933 53.4203C96.4728 51.9385 96.8203 50.4202 97.032 48.8817C97.0673 48.6323 97.2037 48.4065 97.4115 48.2534C97.6194 48.1003 97.8819 48.0325 98.1416 48.0648C98.401 48.0987 98.636 48.2299 98.7952 48.4297C98.9544 48.6295 99.025 48.8817 98.9914 49.1314C98.7567 50.7482 98.3776 52.3426 97.8583 53.8969C97.8018 54.0969 97.6791 54.2738 97.5087 54.4007C97.3383 54.5277 97.1295 54.5977 96.9139 54.6004ZM98.0235 42.9135C97.7853 42.9051 97.5578 42.8163 97.3808 42.6628C97.2038 42.5093 97.0887 42.3008 97.0556 42.0738C96.8438 40.5354 96.4964 39.0171 96.0169 37.5352C95.9782 37.4175 95.9639 37.2936 95.9749 37.1706C95.986 37.0476 96.0221 36.9279 96.0813 36.8183C96.1405 36.7088 96.2216 36.6115 96.3199 36.532C96.4182 36.4525 96.5318 36.3925 96.6543 36.3552C96.7768 36.318 96.9056 36.3043 97.0336 36.3149C97.1616 36.3255 97.2861 36.3603 97.4001 36.4172C97.5141 36.4741 97.6153 36.552 97.698 36.6465C97.7807 36.741 97.8431 36.8502 97.8818 36.9679C98.4045 38.52 98.776 40.1153 98.9914 41.7335C99.0254 41.9797 98.9581 42.2289 98.8038 42.4281C98.6495 42.6274 98.4203 42.7608 98.1651 42.8L98.0235 42.9135ZM93.7742 31.8847C93.6119 31.8887 93.4512 31.8534 93.3068 31.782C93.1624 31.7106 93.039 31.6055 92.9479 31.4762C92.0716 30.203 91.0844 29.0035 89.997 27.8907C89.8139 27.7124 89.7113 27.4719 89.7113 27.2213C89.7113 26.9707 89.8139 26.7302 89.997 26.5519C90.0873 26.4619 90.1955 26.3904 90.3152 26.3416C90.4348 26.2928 90.5635 26.2676 90.6935 26.2676C90.8235 26.2676 90.9521 26.2928 91.0718 26.3416C91.1914 26.3904 91.2996 26.4619 91.3898 26.5519C92.5676 27.7316 93.6267 29.0157 94.5532 30.387C94.6273 30.4904 94.6789 30.6072 94.7048 30.7303C94.7307 30.8534 94.7304 30.9802 94.7039 31.1032C94.6775 31.2262 94.6253 31.3428 94.5508 31.4459C94.4762 31.549 94.3806 31.6365 94.2699 31.7032C94.1228 31.8022 93.9525 31.8645 93.7742 31.8847ZM84.9687 23.738C84.7859 23.7383 84.6065 23.6913 84.4493 23.6018C83.0984 22.8143 81.6762 22.146 80.2 21.6048C80.0776 21.5621 79.9653 21.4961 79.87 21.4108C79.7748 21.3254 79.6983 21.2224 79.6454 21.108C79.5925 20.9936 79.5642 20.87 79.5621 20.7449C79.5601 20.6197 79.5844 20.4953 79.6335 20.3794C79.678 20.2644 79.7458 20.159 79.8329 20.0693C79.9201 19.9796 80.0248 19.9074 80.1411 19.8567C80.2574 19.8061 80.383 19.7781 80.5106 19.7744C80.6382 19.7706 80.7653 19.7911 80.8846 19.8348C82.4756 20.4196 84.0084 21.1411 85.4645 21.9906C85.5757 22.0536 85.6727 22.1373 85.7498 22.2369C85.8269 22.3365 85.8824 22.4498 85.9132 22.5704C85.944 22.6909 85.9495 22.8162 85.9291 22.9387C85.9088 23.0613 85.8632 23.1787 85.7949 23.2841C85.7133 23.4249 85.5931 23.5416 85.4475 23.6216C85.3019 23.7016 85.1363 23.7418 84.9687 23.738Z" fill="white" stroke="white"/>
<path d="M73.8226 19.7738C73.0094 19.7738 72.2588 19.6818 71.5082 19.6818C71.3942 19.6818 71.2812 19.6617 71.1761 19.6226C71.071 19.5836 70.9759 19.5264 70.8962 19.4543C70.8165 19.3823 70.754 19.2969 70.7123 19.2033C70.6706 19.1096 70.6505 19.0095 70.6533 18.9088C70.6533 18.7087 70.7434 18.5168 70.9037 18.3753C71.064 18.2338 71.2815 18.1543 71.5082 18.1543C72.3214 18.1543 73.1137 18.1543 73.906 18.2463C74.0212 18.2555 74.1332 18.2848 74.2355 18.3324C74.3378 18.3801 74.4284 18.4451 74.502 18.5238C74.5757 18.6025 74.631 18.6933 74.6647 18.791C74.6984 18.8887 74.7098 18.9913 74.6983 19.0929C74.6773 19.2832 74.5751 19.4593 74.4126 19.5857C74.25 19.7122 74.0391 19.7794 73.8226 19.7738Z" fill="white" stroke="white"/>
<path d="M71.582 95.0801C71.4609 95.1019 71.3368 95.1019 71.2157 95.0801L71.0097 94.943C60.0196 87.4272 52.4365 75.8956 49.9012 62.8431C46.0087 57.979 43.9001 51.9327 43.9258 45.7079C43.9439 38.398 46.865 31.3933 52.0489 26.2287C57.2329 21.064 64.2569 18.1606 71.582 18.1546C71.7072 18.1515 71.8317 18.1735 71.9483 18.2192C72.0648 18.2649 72.171 18.3334 72.2606 18.4207C72.3502 18.508 72.4214 18.6123 72.47 18.7275C72.5186 18.8426 72.5436 18.9663 72.5436 19.0913C72.5436 19.3458 72.4422 19.5899 72.2619 19.7698C72.0816 19.9498 71.8371 20.0509 71.582 20.0509C64.7864 20.0626 58.2698 22.7494 53.4474 27.5275C48.625 32.3057 45.8863 38.7895 45.826 45.5708C45.8048 51.4427 47.8188 57.1413 51.5267 61.7007C51.6193 61.8129 51.6823 61.9464 51.7098 62.0891C54.0789 74.5453 61.2041 85.596 71.582 92.9096C81.9599 85.596 89.0851 74.5453 91.4542 62.0891C91.5089 61.8468 91.6577 61.636 91.8681 61.5032C92.0785 61.3703 92.3331 61.3264 92.576 61.3809C92.6983 61.4053 92.8145 61.4538 92.9179 61.5236C93.0212 61.5934 93.1096 61.683 93.1778 61.7872C93.246 61.8914 93.2927 62.0082 93.3151 62.1307C93.3376 62.2531 93.3354 62.3788 93.3086 62.5004C90.8195 75.6384 83.2123 87.2557 72.1544 94.8059H71.9483C71.8359 94.8371 71.7172 94.8371 71.6049 94.8059L71.582 95.0801Z" fill="white" stroke="white"/>
<path d="M64.8299 95.0961H6.01305C5.88653 95.0961 5.76122 95.0715 5.64433 95.0238C5.52744 94.9761 5.42122 94.9061 5.33175 94.8179C5.24229 94.7298 5.17134 94.6251 5.12293 94.5098C5.07451 94.3946 5.04956 94.2711 5.04956 94.1464V87.1367C5.04956 87.012 5.07451 86.8885 5.12293 86.7733C5.17134 86.6581 5.24229 86.5534 5.33175 86.4652C5.42122 86.377 5.52744 86.3071 5.64433 86.2593C5.76122 86.2116 5.88653 86.187 6.01305 86.187H62.7195C62.8541 86.1865 62.9872 86.2146 63.1099 86.2692C63.2326 86.3238 63.3419 86.4037 63.4306 86.5036C64.0423 87.1669 64.7305 87.8452 65.4951 88.5387C65.6813 88.7173 65.7884 88.961 65.7934 89.217V94.1464C65.7934 94.3983 65.6918 94.6398 65.5112 94.8179C65.3305 94.996 65.0855 95.0961 64.8299 95.0961ZM6.97654 93.2193H63.8894V89.624C63.3159 89.104 62.8112 88.5839 62.3066 88.0864H6.97654V93.2193Z" fill="white" stroke="white"/>
<path d="M58.3763 87.8067H12.4893C12.2347 87.8067 11.9904 87.7056 11.8103 87.5255C11.6302 87.3454 11.5291 87.1011 11.5291 86.8464V81.9308C11.5291 81.6761 11.6302 81.4319 11.8103 81.2518C11.9904 81.0717 12.2347 80.9705 12.4893 80.9705C12.6144 80.9705 12.7382 80.9955 12.8534 81.044C12.9687 81.0925 13.073 81.1636 13.1604 81.2531C13.2477 81.3426 13.3163 81.4487 13.3621 81.565C13.4078 81.6814 13.4298 81.8058 13.4268 81.9308V85.9548H57.416V81.8394C53.5556 75.9974 50.8258 69.4829 49.3681 62.634C46.898 59.509 45.133 55.8867 44.1944 52.0155C43.2557 48.1443 43.1656 44.1159 43.9301 40.2066C44.6946 36.2973 46.2956 32.5996 48.6234 29.3672C50.9512 26.1348 53.9507 23.4441 57.416 21.4798V15.1924H13.4268V19.6279C13.4268 19.8765 13.328 20.115 13.1522 20.2907C12.9764 20.4665 12.738 20.5653 12.4893 20.5653C12.3643 20.5684 12.24 20.5464 12.1236 20.5006C12.0072 20.4549 11.9011 20.3863 11.8116 20.2989C11.7222 20.2116 11.6511 20.1072 11.6025 19.992C11.554 19.8767 11.529 19.7529 11.5291 19.6279V14.2321C11.529 14.1071 11.554 13.9833 11.6025 13.868C11.6511 13.7528 11.7222 13.6484 11.8116 13.5611C11.9011 13.4737 12.0072 13.4051 12.1236 13.3594C12.24 13.3137 12.3643 13.2917 12.4893 13.2947H58.3763C58.6249 13.2947 58.8633 13.3935 59.0391 13.5693C59.2149 13.7451 59.3136 13.9835 59.3136 14.2321V22.0286C59.3139 22.2018 59.2673 22.372 59.1788 22.5209C59.0902 22.6698 58.963 22.792 58.8106 22.8745C55.473 24.6648 52.572 27.1701 50.3148 30.2114C48.0575 33.2527 46.4998 36.755 45.7528 40.468C45.0058 44.1811 45.088 48.0133 45.9936 51.6909C46.8991 55.3685 48.6057 58.8007 50.9914 61.7424C51.0839 61.8546 51.1468 61.9882 51.1743 62.131C52.5861 68.9118 55.2956 75.3556 59.1537 81.1077C59.2643 81.2688 59.3203 81.4611 59.3136 81.6564V87.0293C59.2756 87.2493 59.1602 87.4485 58.9884 87.591C58.8165 87.7335 58.5995 87.81 58.3763 87.8067Z" fill="white" stroke="white"/>
<path d="M12.7584 23.0137C12.5984 23.0165 12.4392 22.9964 12.2902 22.9546C12.1412 22.9129 12.0054 22.8503 11.8908 22.7705C11.7763 22.6908 11.6852 22.5955 11.6231 22.4903C11.561 22.3851 11.529 22.2721 11.5291 22.1579V19.841C11.5291 19.6085 11.6586 19.3855 11.8891 19.2211C12.1197 19.0567 12.4324 18.9644 12.7584 18.9644C12.9185 18.9643 13.0769 18.9872 13.2245 19.0315C13.372 19.0758 13.5056 19.1407 13.6174 19.2224C13.7292 19.3041 13.8171 19.4009 13.8756 19.5071C13.9342 19.6134 13.9624 19.7269 13.9584 19.841V22.1579C13.9584 22.3849 13.832 22.6025 13.607 22.763C13.3819 22.9235 13.0767 23.0137 12.7584 23.0137Z" fill="white" stroke="white"/>
<path d="M12.7579 73.2286C12.432 73.2286 12.1194 73.1266 11.889 72.9452C11.6585 72.7638 11.5291 72.5178 11.5291 72.2612V67.2631C11.5291 67.0065 11.6585 66.7605 11.889 66.5791C12.1194 66.3977 12.432 66.2957 12.7579 66.2957C12.9179 66.2957 13.0763 66.3209 13.2237 66.3698C13.3712 66.4186 13.5047 66.4903 13.6165 66.5804C13.7283 66.6706 13.8161 66.7774 13.8746 66.8946C13.9331 67.0119 13.9613 67.1372 13.9574 67.2631V72.2612C13.9613 72.3871 13.9331 72.5124 13.8746 72.6297C13.8161 72.7469 13.7283 72.8537 13.6165 72.9439C13.5047 73.034 13.3712 73.1057 13.2237 73.1545C13.0763 73.2034 12.9179 73.2286 12.7579 73.2286ZM12.7579 60.6988C12.432 60.6988 12.1194 60.5969 11.889 60.4154C11.6585 60.234 11.5291 59.988 11.5291 59.7314V54.8024C11.529 54.6764 11.561 54.5518 11.6231 54.4356C11.6852 54.3195 11.7761 54.2144 11.8907 54.1264C12.0052 54.0384 12.1409 53.9693 12.2898 53.9232C12.4388 53.8772 12.5979 53.855 12.7579 53.8581C13.076 53.8581 13.3811 53.9576 13.606 54.1347C13.831 54.3118 13.9574 54.552 13.9574 54.8024V59.8235C13.9423 60.0659 13.8093 60.2944 13.586 60.4617C13.3626 60.6289 13.0661 60.7221 12.7579 60.7218V60.6988ZM12.7579 48.146C12.5979 48.1491 12.4388 48.1269 12.2898 48.0808C12.1409 48.0347 12.0052 47.9657 11.8907 47.8777C11.7761 47.7897 11.6852 47.6845 11.6231 47.5684C11.561 47.4523 11.529 47.3276 11.5291 47.2016V42.1805C11.5291 41.924 11.6585 41.6779 11.889 41.4965C12.1194 41.3151 12.432 41.2132 12.7579 41.2132C12.9179 41.2131 13.0763 41.2383 13.2237 41.2872C13.3712 41.3361 13.5047 41.4077 13.6165 41.4978C13.7283 41.588 13.8161 41.6948 13.8746 41.8121C13.9331 41.9293 13.9613 42.0546 13.9574 42.1805V47.2016C13.9613 47.3276 13.9331 47.4529 13.8746 47.5701C13.8161 47.6873 13.7283 47.7942 13.6165 47.8843C13.5047 47.9745 13.3712 48.0461 13.2237 48.095C13.0763 48.1439 12.9179 48.169 12.7579 48.169V48.146ZM12.7579 35.6162C12.432 35.6162 12.1194 35.5143 11.889 35.3329C11.6585 35.1515 11.5291 34.9054 11.5291 34.6488V29.6277C11.529 29.5018 11.561 29.377 11.6231 29.2609C11.6852 29.1448 11.7761 29.0397 11.8907 28.9517C12.0052 28.8637 12.1409 28.7946 12.2898 28.7485C12.4388 28.7025 12.5979 28.6803 12.7579 28.6834C13.076 28.6834 13.3811 28.7829 13.606 28.96C13.831 29.1371 13.9574 29.3773 13.9574 29.6277V34.6488C13.9653 34.7767 13.9401 34.9045 13.8834 35.0244C13.8266 35.1443 13.7396 35.2539 13.6274 35.3466C13.5152 35.4392 13.3803 35.5129 13.2308 35.5632C13.0813 35.6135 12.9204 35.6394 12.7579 35.6392V35.6162Z" fill="white" stroke="white"/>
<path d="M12.7584 82.9473C12.5984 82.9501 12.4392 82.93 12.2902 82.8882C12.1412 82.8465 12.0054 82.7839 11.8908 82.7041C11.7763 82.6244 11.6852 82.5291 11.6231 82.4239C11.561 82.3187 11.529 82.2056 11.5291 82.0915V79.7746C11.5291 79.5421 11.6586 79.3191 11.8891 79.1547C12.1197 78.9903 12.4324 78.8979 12.7584 78.8979C12.9185 78.8979 13.0769 78.9207 13.2245 78.965C13.372 79.0093 13.5056 79.0742 13.6174 79.1559C13.7292 79.2376 13.8171 79.3344 13.8756 79.4407C13.9342 79.5469 13.9624 79.6605 13.9584 79.7746V82.1541C13.9362 82.37 13.8 82.572 13.5773 82.7191C13.3546 82.8663 13.062 82.9479 12.7584 82.9473Z" fill="white" stroke="white"/>
<path d="M48.6458 87.8068H23.0231C22.7671 87.8068 22.5216 87.7057 22.3406 87.5259C22.1596 87.346 22.0579 87.102 22.0579 86.8477V14.231C22.0578 14.1061 22.083 13.9824 22.1318 13.8673C22.1806 13.7522 22.252 13.648 22.342 13.5607C22.4319 13.4735 22.5385 13.405 22.6554 13.3593C22.7724 13.3136 22.8974 13.2917 23.0231 13.2947H48.6458C48.7696 13.2947 48.8921 13.3189 49.0064 13.366C49.1207 13.413 49.2246 13.482 49.3121 13.5689C49.3995 13.6559 49.4689 13.7591 49.5163 13.8727C49.5636 13.9863 49.588 14.108 49.588 14.231V31.7001C49.589 31.8697 49.5411 32.0361 49.4501 32.1796C47.03 36.1664 45.751 40.734 45.751 45.3899C45.751 50.0459 47.03 54.6135 49.4501 58.6002C49.5436 58.7427 49.5917 58.9098 49.588 59.0798V86.7563C49.6044 86.8885 49.5921 87.0227 49.5522 87.1498C49.5122 87.2769 49.4454 87.3941 49.3562 87.4935C49.2671 87.5929 49.1575 87.6723 49.035 87.7263C48.9125 87.7803 48.7798 87.8078 48.6458 87.8068ZM23.9652 85.8886H47.6807V59.4223C45.1654 55.1974 43.8384 50.3787 43.8384 45.4699C43.8384 40.561 45.1654 35.7423 47.6807 31.5174V15.1901H23.9652V85.8886Z" fill="white" stroke="white"/>
<path d="M71.4534 95.0963C71.3466 95.0964 71.2409 95.0713 71.1426 95.0227C71.0442 94.974 70.9552 94.9028 70.8806 94.813C70.8061 94.7233 70.7476 94.617 70.7085 94.5003C70.6695 94.3836 70.6507 94.259 70.6533 94.1336V71.7389C70.6533 71.4896 70.7376 71.2506 70.8876 71.0743C71.0377 70.8981 71.2412 70.7991 71.4534 70.7991C71.5601 70.796 71.6662 70.8181 71.7655 70.864C71.8649 70.9098 71.9554 70.9785 72.0317 71.0661C72.1081 71.1537 72.1688 71.2583 72.2102 71.3739C72.2516 71.4894 72.2729 71.6135 72.2729 71.7389V94.1336C72.2729 94.389 72.1866 94.6338 72.0329 94.8144C71.8792 94.9949 71.6707 95.0963 71.4534 95.0963Z" fill="white" stroke="white"/>
</svg>
