<svg width="94" height="72" viewBox="0 0 94 72" fill="none" xmlns="http://www.w3.org/2000/svg">
<path d="M42.7629 10.7413L31.6637 0L0.00872803 15.6405L13.6877 25.2693L42.7629 10.7413Z" fill="#D1D1D1"/>
<path d="M0 67.4857H13.6875V44.3521L0.0183997 40.7656L0 67.4857Z" fill="white"/>
<path d="M31.6635 0L51.7212 19.4102V37.0693L38.3772 26.8873L31.6635 0Z" fill="white"/>
<path d="M38.3773 26.8872L51.7213 37.0692L13.6875 44.3522L0.0183716 40.7656L38.3773 26.8872Z" fill="#D1D1D1"/>
<path d="M25.657 67.4597V54.1944H31.1391C31.91 54.1781 32.6731 54.3503 33.3616 54.6959C33.9866 55.016 34.508 55.5056 34.8654 56.1082C35.2403 56.7659 35.4279 57.513 35.4081 58.269V58.5345C35.4273 59.2885 35.2349 60.033 34.8525 60.6842C34.4868 61.2897 33.959 61.7819 33.3282 62.1057C32.6546 62.4484 31.9066 62.6206 31.1502 62.6072H28.1869V67.4597H25.657ZM28.1684 60.3339H30.8909C31.4182 60.3578 31.9351 60.1819 32.3374 59.8416C32.5234 59.6716 32.6697 59.4629 32.7657 59.2303C32.8617 58.9977 32.9052 58.7469 32.893 58.4957V58.3114C32.9052 58.0605 32.8617 57.81 32.7657 57.5777C32.6696 57.3454 32.5234 57.137 32.3374 56.9673C31.9357 56.6257 31.4186 56.4491 30.8909 56.4732H28.1684V60.3339Z" fill="white"/>
<path d="M39.0197 67.7232C38.3985 67.7336 37.7821 67.6143 37.2102 67.3729C36.6994 67.1584 36.2606 66.8035 35.9452 66.3497C35.623 65.8646 35.4599 65.2919 35.4785 64.7106C35.4585 64.135 35.6218 63.5677 35.9452 63.09C36.2718 62.6431 36.7224 62.3009 37.2417 62.1055C37.8454 61.875 38.488 61.7623 39.1345 61.7737H41.7274V61.2427C41.7346 61.0424 41.7013 60.8427 41.6294 60.6555C41.5575 60.4683 41.4484 60.2974 41.3088 60.153C41.0291 59.8691 40.5865 59.7272 39.9772 59.7272C39.3678 59.7272 38.9363 59.8636 38.6437 60.1346C38.3465 60.4166 38.1468 60.7852 38.0733 61.1874L35.8656 60.4499C36.0192 59.9665 36.2678 59.5184 36.5972 59.1317C36.967 58.7101 37.4297 58.3795 37.9492 58.1656C38.6049 57.9032 39.3078 57.7777 40.0142 57.7968C41.2588 57.7968 42.2422 58.1041 42.9645 58.7187C43.6868 59.3332 44.0486 60.2305 44.0498 61.4104V64.9134C44.0498 65.2932 44.2276 65.4831 44.5832 65.4831H45.3444V67.454H43.7461C43.3319 67.4707 42.9237 67.3508 42.5849 67.1129C42.4393 67.0103 42.3214 66.8734 42.2416 66.7146C42.1618 66.5557 42.1226 66.3797 42.1274 66.2022V66.1837H41.7663C41.68 66.3975 41.5647 66.5985 41.4236 66.7811C41.2013 67.0624 40.9142 67.2863 40.5865 67.4337C40.0932 67.6477 39.5573 67.7467 39.0197 67.7232ZM39.4382 65.791C40.0371 65.8171 40.6242 65.6199 41.0847 65.2379C41.2959 65.0509 41.4624 64.8193 41.572 64.5599C41.6816 64.3006 41.7315 64.0201 41.7181 63.739V63.5546H39.3104C38.94 63.5342 38.5728 63.6339 38.264 63.8386C38.1395 63.9298 38.0395 64.0502 37.9729 64.1892C37.9063 64.3281 37.8753 64.4813 37.8825 64.635C37.8787 64.7955 37.913 64.9545 37.9825 65.0993C38.052 65.2441 38.1548 65.3705 38.2825 65.4684C38.5455 65.6847 38.9308 65.7923 39.4382 65.791Z" fill="white"/>
<path d="M46.1387 67.4599V58.0572H48.4982V59.1302H48.8409C48.9603 58.7761 49.2079 58.4791 49.5354 58.2968C49.8844 58.1138 50.2745 58.0224 50.6689 58.0314H51.8097V60.1442H50.63C50.0871 60.1232 49.5543 60.2944 49.1261 60.6273C48.7335 60.9505 48.5371 61.4465 48.5371 62.1151V67.4618L46.1387 67.4599Z" fill="white"/>
<path d="M55.4233 67.7233C54.8027 67.7337 54.1869 67.6144 53.6156 67.373C53.1043 67.1586 52.6649 66.8037 52.3488 66.3497C52.0273 65.8644 51.8649 65.2918 51.884 64.7107C51.8634 64.1352 52.0261 63.568 52.3488 63.0901C52.6754 62.6432 53.126 62.301 53.6453 62.1056C54.2496 61.8749 54.8928 61.7622 55.5399 61.7737H58.1328V61.2427C58.1397 61.0425 58.1061 60.8429 58.0342 60.6558C57.9624 60.4686 57.8536 60.2977 57.7143 60.1531C57.4352 59.8692 56.9907 59.7272 56.3808 59.7272C55.7708 59.7272 55.3282 59.863 55.0528 60.1347C54.7551 60.4165 54.5547 60.7851 54.4806 61.1874L52.2729 60.4499C52.4286 59.9656 52.6805 59.5173 53.0137 59.1317C53.3832 58.7098 53.846 58.3791 54.3657 58.1656C55.0214 57.9029 55.7243 57.7774 56.4308 57.7969C57.6729 57.7969 58.6563 58.1042 59.3811 58.7187C60.1059 59.3333 60.4677 60.2306 60.4664 61.4105V64.9135C60.4664 65.2933 60.6442 65.4832 60.9998 65.4832H61.761V67.4541H60.1608C59.7467 67.4702 59.3387 67.3503 58.9996 67.113C58.8546 67.0099 58.7372 66.8729 58.6578 66.7141C58.5783 66.5553 58.5393 66.3796 58.544 66.2022V66.1838H58.1736C58.0881 66.3979 57.9728 66.599 57.8309 66.7812C57.6091 67.0629 57.3218 67.2869 56.9938 67.4338C56.4995 67.6489 55.9621 67.7479 55.4233 67.7233ZM55.8418 65.7911C56.4413 65.8177 57.0292 65.6204 57.4902 65.238C57.7005 65.0525 57.8669 64.8228 57.9771 64.5655C58.0872 64.3082 58.1386 64.0297 58.1273 63.7501V63.5658H55.7122C55.3417 63.5456 54.9747 63.6452 54.6658 63.8497C54.5418 63.9413 54.4423 64.0619 54.3761 64.2008C54.3099 64.3397 54.279 64.4926 54.2861 64.6462C54.2824 64.8064 54.3165 64.9652 54.3857 65.11C54.4548 65.2547 54.5571 65.3813 54.6843 65.4795C54.951 65.6885 55.3381 65.7923 55.8455 65.7911H55.8418Z" fill="white"/>
<path d="M61.9056 62.7969V62.4945C61.8801 61.615 62.083 60.7437 62.4946 59.965C62.8583 59.2936 63.402 58.7358 64.0651 58.3536C64.7176 57.9837 65.457 57.7928 66.2079 57.8005C67.0722 57.8005 67.7254 57.9517 68.1674 58.2541C68.5534 58.4996 68.8838 58.8223 69.1379 59.2017H69.4805V58.0605H71.8419V69.1226C71.8555 69.405 71.812 69.6873 71.714 69.9527C71.616 70.2181 71.4655 70.4612 71.2714 70.6676C71.071 70.8631 70.8321 71.0153 70.5698 71.1146C70.3075 71.2139 70.0275 71.2582 69.7472 71.2447H63.4224V69.1613H68.9045C69.2601 69.1613 69.4379 68.9714 69.4379 68.5916V66.1506H69.0953C68.9457 66.3785 68.7663 66.5855 68.5619 66.7664C68.2946 66.9979 67.9844 67.1751 67.6488 67.2881C67.0574 67.4717 66.435 67.5353 65.8185 67.4752C65.202 67.415 64.6038 67.2323 64.0595 66.9378C63.3964 66.5556 62.8527 65.9978 62.489 65.3264C62.0794 64.5472 61.8784 63.676 61.9056 62.7969ZM66.8932 65.4131C67.2332 65.4233 67.5718 65.3665 67.8897 65.246C68.2075 65.1254 68.4983 64.9435 68.7452 64.7107C69.2391 64.2448 69.486 63.5879 69.486 62.7398V62.5554C69.486 61.695 69.2391 61.0343 68.7452 60.5734C68.2325 60.127 67.5744 59.8809 66.8932 59.8809C66.212 59.8809 65.5539 60.127 65.0411 60.5734C64.5472 61.0368 64.3003 61.6975 64.3003 62.5554V62.7398C64.3003 63.5854 64.5472 64.2424 65.0411 64.7107C65.2872 64.9431 65.5771 65.1248 65.8939 65.2453C66.2108 65.3659 66.5485 65.4229 66.8876 65.4131H66.8932Z" fill="white"/>
<path d="M78.0407 67.7235C77.1633 67.738 76.2953 67.5433 75.5089 67.1557C74.7719 66.7877 74.1576 66.2153 73.7402 65.5074C73.2903 64.7172 73.0661 63.8195 73.092 62.9115V62.6073C73.0661 61.6994 73.2903 60.8017 73.7402 60.0114C74.1581 59.304 74.7722 58.7316 75.5089 58.3632C76.3001 57.9894 77.1649 57.7954 78.0407 57.7954C78.9165 57.7954 79.7813 57.9894 80.5724 58.3632C81.3097 58.7315 81.9245 59.3038 82.343 60.0114C82.793 60.8017 83.0171 61.6994 82.9912 62.6073V62.9115C83.0171 63.8195 82.793 64.7172 82.343 65.5074C81.925 66.2154 81.3101 66.7879 80.5724 67.1557C79.7862 67.5435 78.918 67.7382 78.0407 67.7235ZM78.0407 65.6015C78.3778 65.6124 78.7136 65.5551 79.0278 65.4331C79.342 65.3111 79.6281 65.1269 79.8687 64.8916C80.3514 64.4172 80.5928 63.7412 80.5928 62.8636V62.6792C80.5928 61.7967 80.3545 61.1207 79.8779 60.6512C79.3781 60.1947 78.7245 59.9415 78.0462 59.9415C77.368 59.9415 76.7144 60.1947 76.2146 60.6512C75.7318 61.1256 75.4904 61.8016 75.4904 62.6792V62.8636C75.4904 63.7486 75.7318 64.4246 76.2146 64.8916C76.4549 65.1268 76.7406 65.3109 77.0545 65.4329C77.3684 65.5549 77.7039 65.6122 78.0407 65.6015Z" fill="white"/>
<path d="M84.2468 67.4596V58.0568H86.6082V59.2883H86.9508C87.1495 58.907 87.4444 58.5837 87.8064 58.3499C88.225 58.0537 88.8597 57.905 89.7104 57.9037C90.3889 57.8886 91.058 58.063 91.6421 58.4071C92.1926 58.7386 92.638 59.2178 92.9274 59.7898C93.2463 60.4291 93.4052 61.1356 93.3904 61.8492V67.4596H90.9827V62.0391C90.9827 61.3312 90.8068 60.802 90.4586 60.448C90.1104 60.094 89.6122 59.9171 88.964 59.9171C88.2232 59.9171 87.6521 60.1629 87.2508 60.6545C86.8452 61.1394 86.6415 61.8197 86.6415 62.6826V67.4596H84.2468Z" fill="white"/>
</svg>
