<svg width="109" height="83" viewBox="0 0 109 83" fill="none" xmlns="http://www.w3.org/2000/svg">
<path d="M49.4939 12.5466L36.6634 0.0841064L0.0706177 18.231L15.8833 29.4027L49.4939 12.5466Z" fill="black"/>
<path d="M0.0608521 78.3842H15.8834V51.5437L0.0821219 47.3824L0.0608521 78.3842Z" fill="#232323"/>
<path d="M36.6635 0.0841064L59.85 22.6047V43.0936L44.4245 31.28L36.6635 0.0841064Z" fill="#2D2D2D"/>
<path d="M44.4247 31.2801L59.8502 43.0937L15.8836 51.5437L0.0823059 47.3824L44.4247 31.2801Z" fill="black"/>
<path d="M29.7203 78.3538V62.9627H36.0575C36.9487 62.9438 37.8308 63.1436 38.6267 63.5446C39.3493 63.916 39.9519 64.4841 40.3651 65.1832C40.7985 65.9463 41.0153 66.8131 40.9924 67.6902V67.9983C41.0146 68.8732 40.7922 69.7369 40.3502 70.4925C39.9274 71.195 39.3173 71.7661 38.5882 72.1418C37.8095 72.5393 36.9447 72.7392 36.0704 72.7236H32.6449V78.3538H29.7203ZM32.6234 70.0861H35.7707C36.3802 70.1138 36.9777 69.9097 37.4427 69.5149C37.6579 69.3176 37.8269 69.0754 37.9379 68.8056C38.0489 68.5357 38.0991 68.2448 38.085 67.9533V67.7394C38.0991 67.4483 38.0489 67.1577 37.9379 66.8882C37.8268 66.6187 37.6578 66.3769 37.4427 66.18C36.9785 65.7837 36.3807 65.5787 35.7707 65.6067H32.6234V70.0861Z" fill="black"/>
<path d="M45.1669 78.6596C44.4489 78.6717 43.7364 78.5332 43.0752 78.2532C42.4848 78.0043 41.9776 77.5925 41.613 77.066C41.2405 76.5031 41.052 75.8387 41.0734 75.1643C41.0503 74.4963 41.2391 73.8382 41.613 73.284C41.9904 72.7654 42.5113 72.3684 43.1116 72.1417C43.8095 71.8742 44.5524 71.7435 45.2997 71.7567H48.297V71.1406C48.3054 70.9082 48.2669 70.6765 48.1838 70.4593C48.1006 70.2421 47.9746 70.0439 47.8132 69.8764C47.4899 69.5469 46.9782 69.3822 46.2738 69.3822C45.5694 69.3822 45.0706 69.5405 44.7323 69.855C44.3888 70.1822 44.1579 70.6098 44.0729 71.0764L41.5209 70.2208C41.6984 69.6599 41.9859 69.14 42.3666 68.6913C42.7941 68.2022 43.329 67.8186 43.9295 67.5704C44.6875 67.2659 45.5 67.1203 46.3166 67.1426C47.7554 67.1426 48.8922 67.4991 49.7272 68.2121C50.5622 68.9252 50.9804 69.9662 50.9818 71.3352V75.3996C50.9818 75.8402 51.1873 76.0606 51.5984 76.0606H52.4783V78.3473H50.6307C50.1518 78.3666 49.68 78.2275 49.2883 77.9516C49.12 77.8324 48.9837 77.6737 48.8915 77.4893C48.7992 77.305 48.7539 77.1008 48.7595 76.8948V76.8734H48.342C48.2423 77.1215 48.109 77.3547 47.9459 77.5665C47.6889 77.893 47.357 78.1527 46.9782 78.3238C46.4079 78.572 45.7884 78.6868 45.1669 78.6596V78.6596ZM45.6508 76.4178C46.3431 76.4481 47.0217 76.2193 47.5541 75.7761C47.7983 75.5591 47.9907 75.2903 48.1174 74.9894C48.2441 74.6885 48.3018 74.3631 48.2863 74.037V73.823H45.5031C45.0748 73.7994 44.6504 73.9149 44.2934 74.1525C44.1495 74.2583 44.0339 74.398 43.9569 74.5593C43.88 74.7205 43.8441 74.8982 43.8524 75.0766C43.848 75.2627 43.8876 75.4472 43.968 75.6152C44.0483 75.7832 44.1672 75.9299 44.3148 76.0435C44.6189 76.2945 45.0642 76.4192 45.6508 76.4178Z" fill="black"/>
<path d="M53.3972 78.3537V67.4442H56.1248V68.6892H56.5209C56.6589 68.2784 56.9452 67.9337 57.3237 67.7223C57.7272 67.5099 58.1781 67.4039 58.634 67.4143H59.9528V69.8657H58.5891C57.9615 69.8414 57.3456 70.0399 56.8506 70.4262C56.3967 70.8012 56.1698 71.3766 56.1698 72.1524V78.3559L53.3972 78.3537Z" fill="black"/>
<path d="M64.1297 78.6597C63.4124 78.6718 62.7005 78.5334 62.0401 78.2533C61.449 78.0045 60.9411 77.5927 60.5757 77.066C60.204 76.503 60.0162 75.8385 60.0383 75.1644C60.0145 74.4967 60.2026 73.8385 60.5757 73.2841C60.9532 72.7655 61.4741 72.3685 62.0744 72.1418C62.7729 71.8742 63.5165 71.7434 64.2646 71.7567H67.2619V71.1407C67.2698 70.9083 67.2311 70.6768 67.148 70.4597C67.0649 70.2425 66.9391 70.0442 66.7781 69.8764C66.4555 69.547 65.9417 69.3823 65.2366 69.3823C64.5315 69.3823 64.0198 69.5399 63.7015 69.8551C63.3573 70.1821 63.1256 70.6097 63.0399 71.0765L60.4879 70.2208C60.6679 69.6588 60.9591 69.1387 61.3443 68.6914C61.7714 68.2018 62.3064 67.8181 62.9072 67.5705C63.6651 67.2656 64.4777 67.12 65.2944 67.1426C66.7303 67.1426 67.8671 67.4992 68.7049 68.2122C69.5428 68.9252 69.961 69.9663 69.9595 71.3353V75.3997C69.9595 75.8403 70.1651 76.0607 70.5761 76.0607H71.4561V78.3474H69.6063C69.1275 78.366 68.6559 78.227 68.2639 77.9516C68.0963 77.832 67.9606 77.6731 67.8688 77.4888C67.7769 77.3046 67.7318 77.1007 67.7372 76.8949V76.8735H67.309C67.2102 77.122 67.0769 77.3553 66.9129 77.5666C66.6565 77.8935 66.3244 78.1534 65.9452 78.3238C65.3738 78.5734 64.7526 78.6883 64.1297 78.6597V78.6597ZM64.6136 76.4179C65.3066 76.4487 65.9861 76.2198 66.519 75.7762C66.7622 75.561 66.9545 75.2945 67.0819 74.9959C67.2092 74.6973 67.2686 74.3742 67.2555 74.0499V73.836H64.4637C64.0355 73.8126 63.6112 73.9281 63.254 74.1654C63.1107 74.2717 62.9958 74.4116 62.9192 74.5727C62.8427 74.7339 62.807 74.9113 62.8151 75.0895C62.8109 75.2754 62.8503 75.4597 62.9302 75.6276C63.0102 75.7955 63.1284 75.9424 63.2755 76.0564C63.5838 76.2988 64.0312 76.4193 64.6178 76.4179H64.6136Z" fill="black"/>
<path d="M71.6229 72.944V72.5932C71.5935 71.5726 71.828 70.5618 72.3037 69.6583C72.7242 68.8793 73.3527 68.2321 74.1193 67.7887C74.8736 67.3594 75.7284 67.138 76.5964 67.1469C77.5955 67.1469 78.3505 67.3223 78.8615 67.6732C79.3077 67.958 79.6897 68.3324 79.9833 68.7727H80.3794V67.4486H83.1091V80.2833C83.1249 80.611 83.0746 80.9385 82.9613 81.2464C82.8481 81.5544 82.6741 81.8364 82.4497 82.0759C82.218 82.3028 81.9419 82.4793 81.6387 82.5945C81.3355 82.7098 81.0117 82.7611 80.6877 82.7455H73.3764V80.3283H79.7136C80.1246 80.3283 80.3302 80.1079 80.3302 79.6673V76.8351H79.9341C79.7612 77.0995 79.5538 77.3397 79.3175 77.5495C79.0085 77.8181 78.65 78.0238 78.262 78.1549C77.5784 78.3679 76.8589 78.4417 76.1462 78.3719C75.4335 78.3021 74.7421 78.0901 74.1129 77.7485C73.3463 77.305 72.7178 76.6578 72.2973 75.8789C71.8238 74.9747 71.5915 73.9639 71.6229 72.944V72.944ZM77.3885 75.9794C77.7815 75.9913 78.173 75.9254 78.5404 75.7855C78.9079 75.6456 79.244 75.4346 79.5295 75.1644C80.1004 74.6239 80.3858 73.8617 80.3858 72.8777V72.6638C80.3858 71.6655 80.1004 70.899 79.5295 70.3642C78.9367 69.8462 78.176 69.5607 77.3885 69.5607C76.601 69.5607 75.8403 69.8462 75.2476 70.3642C74.6766 70.9018 74.3912 71.6683 74.3912 72.6638V72.8777C74.3912 73.8588 74.6766 74.6211 75.2476 75.1644C75.5321 75.4341 75.8671 75.6449 76.2334 75.7848C76.5997 75.9246 76.9901 75.9908 77.3821 75.9794H77.3885Z" fill="black"/>
<path d="M90.2748 78.6597C89.2606 78.6764 88.2571 78.4505 87.3481 78.0008C86.4961 77.5739 85.786 76.9097 85.3035 76.0885C84.7834 75.1716 84.5242 74.13 84.5541 73.0766V72.7236C84.5242 71.6701 84.7834 70.6286 85.3035 69.7117C85.7866 68.8909 86.4965 68.2269 87.3481 67.7994C88.2627 67.3656 89.2624 67.1406 90.2748 67.1406C91.2872 67.1406 92.2869 67.3656 93.2015 67.7994C94.0537 68.2267 94.7644 68.8908 95.2482 69.7117C95.7684 70.6286 96.0275 71.6701 95.9976 72.7236V73.0766C96.0275 74.13 95.7684 75.1716 95.2482 76.0885C94.765 76.9099 94.0541 77.5741 93.2015 78.0008C92.2925 78.4508 91.289 78.6767 90.2748 78.6597V78.6597ZM90.2748 76.1975C90.6644 76.2102 91.0526 76.1438 91.4158 76.0022C91.7791 75.8607 92.1098 75.6469 92.3879 75.374C92.946 74.8235 93.225 74.0392 93.225 73.0209V72.807C93.225 71.7831 92.9495 70.9988 92.3986 70.454C91.8208 69.9244 91.0653 69.6306 90.2812 69.6306C89.4971 69.6306 88.7416 69.9244 88.1638 70.454C87.6057 71.0045 87.3267 71.7888 87.3267 72.807V73.0209C87.3267 74.0477 87.6057 74.8321 88.1638 75.374C88.4416 75.6468 88.772 75.8604 89.1348 76.002C89.4976 76.1435 89.8855 76.2101 90.2748 76.1975V76.1975Z" fill="black"/>
<path d="M97.4493 78.3538V67.4442H100.179V68.8732H100.575C100.805 68.4307 101.146 68.0556 101.564 67.7844C102.048 67.4407 102.782 67.2681 103.765 67.2667C104.549 67.2492 105.323 67.4515 105.998 67.8507C106.635 68.2353 107.149 68.7913 107.484 69.455C107.853 70.1967 108.036 71.0165 108.019 71.8444V78.3538H105.236V72.0648C105.236 71.2433 105.033 70.6294 104.63 70.2187C104.228 69.808 103.652 69.6026 102.902 69.6026C102.046 69.6026 101.386 69.8878 100.922 70.4583C100.453 71.0209 100.218 71.8102 100.218 72.8113V78.3538H97.4493Z" fill="black"/>
</svg>
