<svg width="100" height="96" viewBox="0 0 100 96" fill="none" xmlns="http://www.w3.org/2000/svg">
<path d="M42.8579 87.8004H28.659C28.5348 87.8004 28.4118 87.7756 28.2973 87.7273C28.1827 87.6791 28.079 87.6084 27.9922 87.5194C27.9054 87.4305 27.8373 87.325 27.7918 87.2093C27.7464 87.0936 27.7245 86.97 27.7276 86.8457V65.2518C27.7276 65.1294 27.7517 65.0082 27.7985 64.8952C27.8453 64.7821 27.9139 64.6794 28.0004 64.5928C28.0869 64.5063 28.1896 64.4376 28.3026 64.3908C28.4156 64.344 28.5367 64.3199 28.659 64.3199H42.9714C43.0956 64.3168 43.2192 64.3387 43.3349 64.3842C43.4505 64.4297 43.5559 64.4978 43.6448 64.5846C43.7337 64.6715 43.8044 64.7753 43.8526 64.8898C43.9008 65.0044 43.9257 65.1275 43.9256 65.2518V86.8457C43.9266 86.9812 43.8987 87.1155 43.8438 87.2394C43.7889 87.3633 43.7083 87.4741 43.6073 87.5644C43.5062 87.6547 43.3872 87.7224 43.258 87.7631C43.1288 87.8038 42.9924 87.8165 42.8579 87.8004ZM29.4996 85.891H41.9264V66.2065H29.4996V85.891Z" fill="black" stroke="black"/>
<path d="M38.8901 65.9393H32.7396C32.6112 65.9393 32.4841 65.9144 32.3658 65.8661C32.2475 65.8178 32.1403 65.747 32.0506 65.6579C31.9609 65.5689 31.8905 65.4633 31.8436 65.3474C31.7966 65.2316 31.774 65.1078 31.7771 64.9833V14.2281C31.7771 13.9806 31.8785 13.7433 32.059 13.5683C32.2395 13.3932 32.4844 13.2949 32.7396 13.2949H38.8901C39.0185 13.2919 39.1462 13.3138 39.2657 13.3593C39.3851 13.4049 39.494 13.4731 39.5859 13.5601C39.6778 13.647 39.7508 13.7509 39.8006 13.8656C39.8504 13.9804 39.8761 14.1036 39.876 14.2281V64.9833C39.876 65.2369 39.7721 65.48 39.5872 65.6593C39.4023 65.8386 39.1516 65.9393 38.8901 65.9393ZM33.7255 64.0502H37.9276V15.184H33.7255V64.0502Z" fill="black" stroke="black"/>
<path d="M64.8299 14.9147H6.01305C5.88653 14.9147 5.76122 14.8901 5.64433 14.8422C5.52744 14.7944 5.42122 14.7243 5.33175 14.6359C5.24229 14.5475 5.17134 14.4425 5.12293 14.327C5.07451 14.2115 5.04956 14.0877 5.04956 13.9627V6.93535C5.04952 6.81136 5.07465 6.68863 5.12335 6.57437C5.17204 6.4601 5.24337 6.35662 5.33315 6.27001C5.42293 6.18341 5.52931 6.1154 5.64608 6.07005C5.76285 6.0247 5.88762 6.0029 6.01305 6.00592H64.8299C64.9554 6.0029 65.0801 6.0247 65.1969 6.07005C65.3137 6.1154 65.4201 6.18341 65.5098 6.27001C65.5996 6.35662 65.6709 6.4601 65.7196 6.57437C65.7683 6.68863 65.7934 6.81136 65.7934 6.93535V13.9627C65.7934 14.2152 65.6918 14.4573 65.5112 14.6359C65.3305 14.8144 65.0855 14.9147 64.8299 14.9147ZM6.97654 13.0332H63.8894V7.88743H6.97654V13.0332Z" fill="black" stroke="black"/>
<path d="M58.3765 8.43525H12.4894C12.2347 8.43525 11.9904 8.32665 11.8103 8.13335C11.6302 7.94004 11.5291 7.67787 11.5291 7.4045V2.15252C11.529 2.01829 11.554 1.88542 11.6025 1.76172C11.6511 1.63801 11.7222 1.52598 11.8116 1.43221C11.9011 1.33845 12.0072 1.26482 12.1236 1.21572C12.24 1.16662 12.3643 1.14302 12.4894 1.1463H58.3765C58.6252 1.1463 58.8635 1.25231 59.0393 1.44101C59.2151 1.62971 59.3139 1.88566 59.3139 2.15252V7.4045C59.3169 7.53868 59.295 7.67217 59.2492 7.7971C59.2035 7.92203 59.1349 8.03587 59.0476 8.13192C58.9602 8.22797 58.8559 8.30429 58.7406 8.35639C58.6254 8.40848 58.5016 8.43529 58.3765 8.43525ZM13.4268 6.39827H57.4162V3.18328H13.4268V6.39827Z" fill="black" stroke="black"/>
<path d="M35.8169 87.8072C35.7102 87.8072 35.6045 87.7824 35.5062 87.7341C35.4078 87.6858 35.3187 87.6151 35.2441 87.5261C35.1696 87.4372 35.1111 87.3317 35.072 87.2159C35.033 87.1002 35.0142 86.9765 35.0168 86.8522V65.2521C35.0168 65.0048 35.1011 64.7677 35.2512 64.5929C35.4012 64.4181 35.6047 64.3199 35.8169 64.3199C35.9236 64.3168 36.0297 64.3387 36.1291 64.3842C36.2284 64.4297 36.3189 64.4979 36.3953 64.5847C36.4716 64.6716 36.5323 64.7754 36.5737 64.89C36.6152 65.0046 36.6365 65.1277 36.6364 65.2521V86.8522C36.6364 87.1055 36.5501 87.3484 36.3964 87.5275C36.2427 87.7066 36.0343 87.8072 35.8169 87.8072Z" fill="black" stroke="black"/>
<path d="M97.2564 95.0964H1.93371C1.80919 95.0964 1.68593 95.0751 1.57117 95.0337C1.45641 94.9923 1.35252 94.9316 1.26554 94.8552C1.17856 94.7788 1.1103 94.6883 1.06475 94.5889C1.0192 94.4896 0.99724 94.3834 1.00028 94.2767C1.00028 94.0645 1.09862 93.861 1.27367 93.7109C1.44872 93.5609 1.68615 93.4766 1.93371 93.4766H97.2564C97.504 93.4766 97.7414 93.5609 97.9164 93.7109C98.0915 93.861 98.1898 94.0645 98.1898 94.2767C98.1928 94.3834 98.1709 94.4896 98.1254 94.5889C98.0798 94.6883 98.0116 94.7788 97.9246 94.8552C97.8376 94.9316 97.7337 94.9923 97.619 95.0337C97.5042 95.0751 97.381 95.0964 97.2564 95.0964Z" fill="black" stroke="black"/>
<path d="M71.4629 57.0302C69.2203 57.0302 67.0281 56.3652 65.1634 55.1193C63.2987 53.8733 61.8454 52.1024 60.9872 50.0305C60.129 47.9586 59.9044 45.6788 60.3419 43.4793C60.7794 41.2797 61.8594 39.2593 63.4451 37.6736C65.0309 36.0878 67.0513 35.0079 69.2508 34.5704C71.4503 34.1329 73.7302 34.3574 75.8021 35.2156C77.874 36.0738 79.6449 37.5272 80.8908 39.3918C82.1367 41.2565 82.8017 43.4487 82.8017 45.6914C82.8017 48.6986 81.6071 51.5827 79.4806 53.7091C77.3542 55.8356 74.4702 57.0302 71.4629 57.0302ZM71.4629 36.3043C69.6247 36.3043 67.8278 36.8494 66.2994 37.8706C64.7709 38.8919 63.5797 40.3434 62.8762 42.0417C62.1728 43.74 61.9887 45.6087 62.3473 47.4116C62.7059 49.2145 63.5912 50.8705 64.891 52.1703C66.1908 53.4702 67.8468 54.3554 69.6497 54.714C71.4526 55.0726 73.3213 54.8885 75.0196 54.1851C76.7179 53.4816 78.1694 52.2904 79.1907 50.762C80.2119 49.2335 80.7571 47.4366 80.7571 45.5984C80.7209 43.1469 79.7293 40.8062 77.9935 39.0747C76.2576 37.3432 73.9146 36.3575 71.4629 36.3275V36.3043Z" fill="black" stroke="black"/>
<path d="M92.079 63.5081C91.8591 63.5184 91.6407 63.4719 91.4511 63.3745C91.2614 63.2771 91.109 63.1332 91.0129 62.9606C90.9168 62.7881 90.8812 62.5947 90.9107 62.4046C90.9402 62.2146 91.0335 62.0363 91.1788 61.8922C91.7932 61.2383 92.3668 60.5562 92.8973 59.8486C93.0736 59.6493 93.33 59.5154 93.6149 59.4737C93.8998 59.432 94.1923 59.4857 94.4338 59.6239C94.6752 59.7622 94.8478 59.9747 94.9169 60.2191C94.9861 60.4635 94.9467 60.7216 94.8067 60.9417C94.2349 61.6995 93.6156 62.4294 92.9518 63.1279C92.8517 63.2474 92.7202 63.3442 92.5684 63.4103C92.4165 63.4765 92.2487 63.51 92.079 63.5081Z" fill="black" stroke="black"/>
<path d="M96.9139 54.6005H96.6071C96.4841 54.5647 96.37 54.5052 96.2717 54.4257C96.1735 54.3461 96.0932 54.248 96.0357 54.1376C95.9783 54.0271 95.9449 53.9065 95.9376 53.7832C95.9303 53.6599 95.9493 53.5365 95.9933 53.4204C96.4728 51.9386 96.8203 50.4203 97.032 48.8818C97.0673 48.6324 97.2037 48.4066 97.4115 48.2535C97.6194 48.1005 97.8819 48.0326 98.1416 48.0649C98.401 48.0988 98.636 48.23 98.7952 48.4298C98.9544 48.6296 99.025 48.8818 98.9914 49.1315C98.7567 50.7483 98.3776 52.3427 97.8583 53.897C97.8018 54.097 97.6791 54.2739 97.5087 54.4008C97.3383 54.5278 97.1295 54.5978 96.9139 54.6005ZM98.0235 42.9136C97.7853 42.9052 97.5578 42.8164 97.3808 42.6629C97.2038 42.5094 97.0887 42.3009 97.0556 42.0739C96.8438 40.5355 96.4964 39.0172 96.0169 37.5354C95.9782 37.4176 95.9639 37.2937 95.9749 37.1707C95.986 37.0477 96.0221 36.928 96.0813 36.8184C96.1405 36.7089 96.2216 36.6116 96.3199 36.5321C96.4182 36.4527 96.5318 36.3926 96.6543 36.3553C96.7768 36.3181 96.9056 36.3044 97.0336 36.315C97.1616 36.3256 97.2861 36.3604 97.4001 36.4173C97.5141 36.4742 97.6153 36.5521 97.698 36.6466C97.7807 36.7411 97.8431 36.8503 97.8818 36.968C98.4045 38.5201 98.776 40.1154 98.9914 41.7336C99.0254 41.9798 98.9581 42.229 98.8038 42.4282C98.6495 42.6275 98.4203 42.7609 98.1651 42.8001L98.0235 42.9136ZM93.7742 31.8848C93.6119 31.8888 93.4512 31.8535 93.3068 31.7821C93.1624 31.7107 93.039 31.6056 92.9479 31.4763C92.0716 30.2031 91.0844 29.0036 89.997 27.8908C89.8139 27.7125 89.7113 27.472 89.7113 27.2214C89.7113 26.9708 89.8139 26.7303 89.997 26.552C90.0873 26.4621 90.1955 26.3905 90.3152 26.3417C90.4348 26.2929 90.5635 26.2677 90.6935 26.2677C90.8235 26.2677 90.9521 26.2929 91.0718 26.3417C91.1914 26.3905 91.2996 26.4621 91.3898 26.552C92.5676 27.7317 93.6267 29.0158 94.5532 30.3871C94.6273 30.4905 94.6789 30.6073 94.7048 30.7304C94.7307 30.8535 94.7304 30.9803 94.7039 31.1033C94.6775 31.2263 94.6253 31.3429 94.5508 31.446C94.4762 31.5491 94.3806 31.6366 94.2699 31.7033C94.1228 31.8023 93.9525 31.8646 93.7742 31.8848ZM84.9687 23.7381C84.7859 23.7384 84.6065 23.6914 84.4493 23.6019C83.0984 22.8144 81.6762 22.1461 80.2 21.6049C80.0776 21.5622 79.9653 21.4962 79.87 21.4109C79.7748 21.3255 79.6983 21.2225 79.6454 21.1081C79.5925 20.9937 79.5642 20.8702 79.5621 20.745C79.5601 20.6198 79.5844 20.4954 79.6335 20.3795C79.678 20.2645 79.7458 20.1591 79.8329 20.0694C79.9201 19.9797 80.0248 19.9075 80.1411 19.8569C80.2574 19.8062 80.383 19.7783 80.5106 19.7745C80.6382 19.7707 80.7653 19.7912 80.8846 19.8349C82.4756 20.4197 84.0084 21.1412 85.4645 21.9907C85.5757 22.0537 85.6727 22.1374 85.7498 22.237C85.8269 22.3366 85.8824 22.4499 85.9132 22.5705C85.944 22.691 85.9495 22.8163 85.9291 22.9388C85.9088 23.0614 85.8632 23.1788 85.7949 23.2842C85.7133 23.425 85.5931 23.5417 85.4475 23.6217C85.3019 23.7017 85.1363 23.7419 84.9687 23.7381Z" fill="black" stroke="black"/>
<path d="M73.8226 19.7738C73.0094 19.7738 72.2588 19.6818 71.5082 19.6818C71.3942 19.6818 71.2812 19.6617 71.1761 19.6227C71.071 19.5836 70.9759 19.5264 70.8962 19.4543C70.8165 19.3823 70.754 19.2969 70.7123 19.2033C70.6706 19.1096 70.6505 19.0095 70.6533 18.9089C70.6533 18.7087 70.7434 18.5168 70.9037 18.3753C71.064 18.2338 71.2815 18.1543 71.5082 18.1543C72.3214 18.1543 73.1137 18.1543 73.906 18.2463C74.0212 18.2556 74.1332 18.2848 74.2355 18.3325C74.3378 18.3801 74.4284 18.4451 74.502 18.5238C74.5757 18.6025 74.631 18.6934 74.6647 18.791C74.6984 18.8887 74.7098 18.9913 74.6983 19.0929C74.6773 19.2832 74.5751 19.4594 74.4126 19.5858C74.25 19.7122 74.0391 19.7794 73.8226 19.7738Z" fill="black" stroke="black"/>
<path d="M71.582 95.0801C71.4609 95.1019 71.3368 95.1019 71.2157 95.0801L71.0097 94.943C60.0196 87.4272 52.4365 75.8956 49.9012 62.8431C46.0087 57.979 43.9001 51.9327 43.9258 45.7079C43.9439 38.398 46.865 31.3933 52.0489 26.2287C57.2329 21.064 64.2569 18.1606 71.582 18.1546C71.7072 18.1515 71.8317 18.1735 71.9483 18.2192C72.0648 18.2649 72.171 18.3334 72.2606 18.4207C72.3502 18.508 72.4214 18.6123 72.47 18.7275C72.5186 18.8426 72.5436 18.9664 72.5436 19.0913C72.5436 19.3458 72.4422 19.5899 72.2619 19.7698C72.0816 19.9498 71.8371 20.0509 71.582 20.0509C64.7864 20.0627 58.2698 22.7494 53.4474 27.5275C48.625 32.3057 45.8863 38.7895 45.826 45.5709C45.8048 51.4428 47.8188 57.1413 51.5267 61.7008C51.6193 61.8129 51.6823 61.9464 51.7098 62.0892C54.0789 74.5453 61.2041 85.596 71.582 92.9096C81.9599 85.596 89.0851 74.5453 91.4542 62.0892C91.5089 61.8468 91.6577 61.636 91.8681 61.5032C92.0785 61.3703 92.3331 61.3264 92.576 61.3809C92.6983 61.4053 92.8145 61.4539 92.9179 61.5236C93.0212 61.5934 93.1096 61.683 93.1778 61.7872C93.246 61.8914 93.2927 62.0082 93.3151 62.1307C93.3376 62.2531 93.3354 62.3788 93.3086 62.5004C90.8195 75.6384 83.2123 87.2557 72.1544 94.8059H71.9483C71.8359 94.8371 71.7172 94.8371 71.6049 94.8059L71.582 95.0801Z" fill="black" stroke="black"/>
<path d="M64.8299 95.0962H6.01305C5.88653 95.0962 5.76122 95.0716 5.64433 95.0239C5.52744 94.9762 5.42122 94.9062 5.33175 94.818C5.24229 94.7298 5.17134 94.6251 5.12293 94.5099C5.07451 94.3947 5.04956 94.2712 5.04956 94.1465V87.1368C5.04956 87.0121 5.07451 86.8886 5.12293 86.7734C5.17134 86.6582 5.24229 86.5535 5.33175 86.4653C5.42122 86.3771 5.52744 86.3071 5.64433 86.2594C5.76122 86.2117 5.88653 86.1871 6.01305 86.1871H62.7195C62.8541 86.1866 62.9872 86.2147 63.1099 86.2693C63.2326 86.3239 63.3419 86.4038 63.4306 86.5037C64.0423 87.1669 64.7305 87.8453 65.4951 88.5388C65.6813 88.7173 65.7884 88.9611 65.7934 89.2171V94.1465C65.7934 94.3984 65.6918 94.6399 65.5112 94.818C65.3305 94.9961 65.0855 95.0962 64.8299 95.0962ZM6.97654 93.2194H63.8894V89.6241C63.3159 89.104 62.8112 88.584 62.3066 88.0865H6.97654V93.2194Z" fill="black" stroke="black"/>
<path d="M58.3763 87.8069H12.4893C12.2347 87.8069 11.9904 87.7058 11.8103 87.5257C11.6302 87.3456 11.5291 87.1013 11.5291 86.8466V81.931C11.5291 81.6763 11.6302 81.4321 11.8103 81.252C11.9904 81.0719 12.2347 80.9708 12.4893 80.9708C12.6144 80.9707 12.7382 80.9957 12.8534 81.0442C12.9687 81.0928 13.073 81.1639 13.1604 81.2533C13.2477 81.3428 13.3163 81.4489 13.3621 81.5653C13.4078 81.6816 13.4298 81.806 13.4268 81.931V85.955H57.416V81.8396C53.5556 75.9976 50.8258 69.4831 49.3681 62.6343C46.898 59.5093 45.133 55.8869 44.1944 52.0157C43.2557 48.1445 43.1656 44.1161 43.9301 40.2068C44.6946 36.2975 46.2956 32.5998 48.6234 29.3674C50.9512 26.135 53.9507 23.4444 57.416 21.4801V15.1926H13.4268V19.6281C13.4268 19.8767 13.328 20.1152 13.1522 20.291C12.9764 20.4668 12.738 20.5655 12.4893 20.5655C12.3643 20.5686 12.24 20.5466 12.1236 20.5008C12.0072 20.4551 11.9011 20.3865 11.8116 20.2992C11.7222 20.2118 11.6511 20.1074 11.6025 19.9922C11.554 19.877 11.529 19.7532 11.5291 19.6281V14.2323C11.529 14.1073 11.554 13.9835 11.6025 13.8683C11.6511 13.753 11.7222 13.6486 11.8116 13.5613C11.9011 13.4739 12.0072 13.4054 12.1236 13.3596C12.24 13.3139 12.3643 13.2919 12.4893 13.2949H58.3763C58.6249 13.2949 58.8633 13.3937 59.0391 13.5695C59.2149 13.7453 59.3136 13.9837 59.3136 14.2323V22.0288C59.3139 22.2021 59.2673 22.3722 59.1788 22.5211C59.0902 22.67 58.963 22.7922 58.8106 22.8747C55.473 24.665 52.572 27.1703 50.3148 30.2116C48.0575 33.2529 46.4998 36.7552 45.7528 40.4682C45.0058 44.1813 45.088 48.0135 45.9936 51.6911C46.8991 55.3687 48.6057 58.8009 50.9914 61.7426C51.0839 61.8548 51.1468 61.9884 51.1743 62.1313C52.5861 68.912 55.2956 75.3558 59.1537 81.1079C59.2643 81.269 59.3203 81.4614 59.3136 81.6567V87.0296C59.2756 87.2495 59.1602 87.4487 58.9884 87.5912C58.8165 87.7337 58.5995 87.8102 58.3763 87.8069Z" fill="black" stroke="black"/>
<path d="M12.7584 23.0137C12.5984 23.0165 12.4392 22.9964 12.2902 22.9547C12.1412 22.9129 12.0054 22.8503 11.8908 22.7706C11.7763 22.6908 11.6852 22.5956 11.6231 22.4904C11.561 22.3851 11.529 22.2721 11.5291 22.158V19.8411C11.5291 19.6086 11.6586 19.3856 11.8891 19.2212C12.1197 19.0568 12.4324 18.9644 12.7584 18.9644C12.9185 18.9644 13.0769 18.9872 13.2245 19.0315C13.372 19.0758 13.5056 19.1407 13.6174 19.2224C13.7292 19.3041 13.8171 19.4009 13.8756 19.5072C13.9342 19.6134 13.9624 19.727 13.9584 19.8411V22.158C13.9584 22.3849 13.832 22.6026 13.607 22.7631C13.3819 22.9236 13.0767 23.0137 12.7584 23.0137Z" fill="black" stroke="black"/>
<path d="M12.7579 73.2287C12.432 73.2287 12.1194 73.1268 11.889 72.9454C11.6585 72.7639 11.5291 72.5179 11.5291 72.2613V67.2632C11.5291 67.0067 11.6585 66.7606 11.889 66.5792C12.1194 66.3978 12.432 66.2959 12.7579 66.2959C12.9179 66.2958 13.0763 66.321 13.2237 66.3699C13.3712 66.4188 13.5047 66.4904 13.6165 66.5806C13.7283 66.6707 13.8161 66.7775 13.8746 66.8948C13.9331 67.012 13.9613 67.1373 13.9574 67.2632V72.2613C13.9613 72.3873 13.9331 72.5125 13.8746 72.6298C13.8161 72.747 13.7283 72.8539 13.6165 72.944C13.5047 73.0342 13.3712 73.1058 13.2237 73.1547C13.0763 73.2036 12.9179 73.2287 12.7579 73.2287ZM12.7579 60.6989C12.432 60.6989 12.1194 60.597 11.889 60.4156C11.6585 60.2342 11.5291 59.9881 11.5291 59.7316V54.8026C11.529 54.6766 11.561 54.5519 11.6231 54.4358C11.6852 54.3197 11.7761 54.2145 11.8907 54.1265C12.0052 54.0385 12.1409 53.9695 12.2898 53.9234C12.4388 53.8773 12.5979 53.8551 12.7579 53.8582C13.076 53.8582 13.3811 53.9577 13.606 54.1348C13.831 54.3119 13.9574 54.5521 13.9574 54.8026V59.8237C13.9423 60.066 13.8093 60.2946 13.586 60.4618C13.3626 60.6291 13.0661 60.7223 12.7579 60.722V60.6989ZM12.7579 48.1461C12.5979 48.1492 12.4388 48.127 12.2898 48.081C12.1409 48.0349 12.0052 47.9658 11.8907 47.8778C11.7761 47.7898 11.6852 47.6846 11.6231 47.5685C11.561 47.4524 11.529 47.3277 11.5291 47.2018V42.1807C11.5291 41.9241 11.6585 41.6781 11.889 41.4966C12.1194 41.3152 12.432 41.2133 12.7579 41.2133C12.9179 41.2133 13.0763 41.2384 13.2237 41.2873C13.3712 41.3362 13.5047 41.4078 13.6165 41.498C13.7283 41.5881 13.8161 41.695 13.8746 41.8122C13.9331 41.9295 13.9613 42.0547 13.9574 42.1807V47.2018C13.9613 47.3277 13.9331 47.453 13.8746 47.5702C13.8161 47.6875 13.7283 47.7943 13.6165 47.8845C13.5047 47.9746 13.3712 48.0462 13.2237 48.0951C13.0763 48.144 12.9179 48.1692 12.7579 48.1691V48.1461ZM12.7579 35.6163C12.432 35.6163 12.1194 35.5144 11.889 35.333C11.6585 35.1516 11.5291 34.9055 11.5291 34.649V29.6279C11.529 29.5019 11.561 29.3772 11.6231 29.2611C11.6852 29.145 11.7761 29.0398 11.8907 28.9518C12.0052 28.8638 12.1409 28.7948 12.2898 28.7487C12.4388 28.7026 12.5979 28.6805 12.7579 28.6835C13.076 28.6835 13.3811 28.783 13.606 28.9601C13.831 29.1372 13.9574 29.3774 13.9574 29.6279V34.649C13.9653 34.7768 13.9401 34.9046 13.8834 35.0245C13.8266 35.1445 13.7396 35.2541 13.6274 35.3467C13.5152 35.4393 13.3803 35.513 13.2308 35.5633C13.0813 35.6137 12.9204 35.6395 12.7579 35.6394V35.6163Z" fill="black" stroke="black"/>
<path d="M12.7584 82.9474C12.5984 82.9502 12.4392 82.9301 12.2902 82.8884C12.1412 82.8466 12.0054 82.784 11.8908 82.7042C11.7763 82.6245 11.6852 82.5292 11.6231 82.424C11.561 82.3188 11.529 82.2058 11.5291 82.0916V79.7747C11.5291 79.5422 11.6586 79.3193 11.8891 79.1549C12.1197 78.9905 12.4324 78.8981 12.7584 78.8981C12.9185 78.8981 13.0769 78.9209 13.2245 78.9652C13.372 79.0095 13.5056 79.0744 13.6174 79.1561C13.7292 79.2378 13.8171 79.3346 13.8756 79.4408C13.9342 79.5471 13.9624 79.6606 13.9584 79.7747V82.1542C13.9362 82.3702 13.8 82.5721 13.5773 82.7193C13.3546 82.8665 13.062 82.948 12.7584 82.9474Z" fill="black" stroke="black"/>
<path d="M48.6458 87.807H23.0231C22.7671 87.807 22.5216 87.706 22.3406 87.5261C22.1596 87.3462 22.0579 87.1023 22.0579 86.8479V14.2312C22.0578 14.1063 22.083 13.9826 22.1318 13.8675C22.1806 13.7524 22.252 13.6482 22.342 13.5609C22.4319 13.4737 22.5385 13.4052 22.6554 13.3595C22.7724 13.3138 22.8974 13.2919 23.0231 13.2949H48.6458C48.7696 13.2949 48.8921 13.3191 49.0064 13.3662C49.1207 13.4132 49.2246 13.4822 49.3121 13.5692C49.3995 13.6561 49.4689 13.7593 49.5163 13.8729C49.5636 13.9865 49.588 14.1082 49.588 14.2312V31.7003C49.589 31.8699 49.5411 32.0363 49.4501 32.1799C47.03 36.1666 45.751 40.7342 45.751 45.3901C45.751 50.0461 47.03 54.6137 49.4501 58.6005C49.5436 58.7429 49.5917 58.91 49.588 59.08V86.7566C49.6044 86.8888 49.5921 87.0229 49.5522 87.15C49.5122 87.2771 49.4454 87.3943 49.3562 87.4937C49.2671 87.5932 49.1575 87.6725 49.035 87.7265C48.9125 87.7805 48.7798 87.808 48.6458 87.807ZM23.9652 85.8888H47.6807V59.4225C45.1654 55.1976 43.8384 50.3789 43.8384 45.4701C43.8384 40.5612 45.1654 35.7425 47.6807 31.5176V15.1903H23.9652V85.8888Z" fill="black" stroke="black"/>
<path d="M71.4534 95.0965C71.3466 95.0965 71.2409 95.0715 71.1426 95.0228C71.0442 94.9742 70.9552 94.9029 70.8806 94.8132C70.8061 94.7235 70.7476 94.6172 70.7085 94.5005C70.6695 94.3838 70.6507 94.2591 70.6533 94.1338V71.739C70.6533 71.4898 70.7376 71.2507 70.8876 71.0745C71.0377 70.8982 71.2412 70.7993 71.4534 70.7993C71.5601 70.7962 71.6662 70.8182 71.7655 70.8641C71.8649 70.91 71.9554 70.9787 72.0317 71.0663C72.1081 71.1538 72.1688 71.2585 72.2102 71.374C72.2516 71.4896 72.2729 71.6137 72.2729 71.739V94.1338C72.2729 94.3891 72.1866 94.634 72.0329 94.8145C71.8792 94.9951 71.6707 95.0965 71.4534 95.0965Z" fill="black" stroke="black"/>
</svg>
